<?xml version="1.0" encoding="iso-8859-1"?>
<!-- Generator: Adobe Illustrator 19.0.0, SVG Export Plug-In . SVG Version: 6.00 Build 0)  -->
<svg version="1.1" id="Capa_1" xmlns="http://www.w3.org/2000/svg" xmlns:xlink="http://www.w3.org/1999/xlink" x="0px" y="0px"
	 viewBox="0 0 512 512" style="enable-background:new 0 0 512 512;" xml:space="preserve">
<path style="fill:#ECF0F1;" d="M475.733,503.467H36.267c-15.317,0-27.733-12.416-27.733-27.733v-364.8h494.933v364.8
	C503.467,491.051,491.051,503.467,475.733,503.467z"/>
<path style="fill:#687492;" d="M503.467,110.933H8.533V36.267c0-15.317,12.416-27.733,27.733-27.733h439.467
	c15.317,0,27.733,12.416,27.733,27.733V110.933z"/>
<rect x="42.667" y="42.667" style="fill:#E64C3C;" width="34.133" height="34.133"/>
<rect x="110.933" y="42.667" style="fill:#F0C419;" width="34.133" height="34.133"/>
<rect x="179.2" y="42.667" style="fill:#24AE5F;" width="34.133" height="34.133"/>
<g>
	<path style="fill:#26B99A;" d="M85.333,213.333c-2.185,0-4.369-0.836-6.033-2.5c-3.337-3.337-3.337-8.73,0-12.066l34.133-34.133
		c3.328-3.337,8.738-3.337,12.066,0c3.337,3.337,3.337,8.73,0,12.066l-34.133,34.133C89.702,212.497,87.518,213.333,85.333,213.333z
		"/>
	<path style="fill:#26B99A;" d="M153.6,213.333c-2.185,0-4.369-0.836-6.033-2.5L113.434,176.7c-3.337-3.337-3.337-8.73,0-12.066
		c3.328-3.337,8.738-3.337,12.066,0l34.133,34.133c3.337,3.337,3.337,8.73,0,12.066C157.969,212.497,155.785,213.333,153.6,213.333z
		"/>
	<path style="fill:#26B99A;" d="M136.533,196.267c-2.185,0-4.369-0.836-6.033-2.5c-3.337-3.337-3.337-8.73,0-12.066l34.133-34.133
		c3.328-3.337,8.738-3.337,12.066,0c3.337,3.337,3.337,8.73,0,12.066l-34.133,34.133
		C140.902,195.43,138.718,196.267,136.533,196.267z"/>
	<path style="fill:#26B99A;" d="M204.8,196.267c-2.185,0-4.369-0.836-6.033-2.5l-34.133-34.133c-3.337-3.337-3.337-8.73,0-12.066
		c3.328-3.337,8.738-3.337,12.066,0l34.133,34.133c3.337,3.337,3.337,8.73,0,12.066C209.169,195.43,206.985,196.267,204.8,196.267z"
		/>
</g>
<g>
	<path style="fill:#BDC3C7;" d="M204.8,290.133H68.267c-4.71,0-8.533-3.814-8.533-8.533c0-4.719,3.823-8.533,8.533-8.533H204.8
		c4.71,0,8.533,3.814,8.533,8.533C213.333,286.319,209.51,290.133,204.8,290.133z"/>
	<path style="fill:#BDC3C7;" d="M162.133,256H68.267c-4.71,0-8.533-3.814-8.533-8.533c0-4.719,3.823-8.533,8.533-8.533h93.867
		c4.71,0,8.533,3.814,8.533,8.533C170.667,252.186,166.844,256,162.133,256z"/>
</g>
<g>
	<path style="fill:#26B99A;" d="M324.267,213.333c-2.185,0-4.369-0.836-6.033-2.5c-3.337-3.337-3.337-8.73,0-12.066l34.133-34.133
		c3.328-3.337,8.738-3.337,12.066,0c3.337,3.337,3.337,8.73,0,12.066L330.3,210.833
		C328.636,212.497,326.451,213.333,324.267,213.333z"/>
	<path style="fill:#26B99A;" d="M392.533,213.333c-2.185,0-4.369-0.836-6.033-2.5L352.367,176.7c-3.337-3.337-3.337-8.73,0-12.066
		c3.328-3.337,8.738-3.337,12.066,0l34.133,34.133c3.337,3.337,3.337,8.73,0,12.066
		C396.902,212.497,394.718,213.333,392.533,213.333z"/>
	<path style="fill:#26B99A;" d="M375.467,196.267c-2.185,0-4.369-0.836-6.033-2.5c-3.337-3.337-3.337-8.73,0-12.066l34.133-34.133
		c3.328-3.337,8.738-3.337,12.066,0c3.337,3.337,3.337,8.73,0,12.066L381.5,193.766C379.836,195.43,377.651,196.267,375.467,196.267
		z"/>
	<path style="fill:#26B99A;" d="M443.733,196.267c-2.185,0-4.369-0.836-6.033-2.5l-34.133-34.133c-3.337-3.337-3.337-8.73,0-12.066
		c3.328-3.337,8.738-3.337,12.066,0l34.133,34.133c3.337,3.337,3.337,8.73,0,12.066C448.102,195.43,445.918,196.267,443.733,196.267
		z"/>
</g>
<g>
	<path style="fill:#BDC3C7;" d="M443.733,290.133H307.2c-4.71,0-8.533-3.814-8.533-8.533c0-4.719,3.823-8.533,8.533-8.533h136.533
		c4.71,0,8.533,3.814,8.533,8.533C452.267,286.319,448.444,290.133,443.733,290.133z"/>
	<path style="fill:#BDC3C7;" d="M401.067,256H307.2c-4.71,0-8.533-3.814-8.533-8.533c0-4.719,3.823-8.533,8.533-8.533h93.867
		c4.71,0,8.533,3.814,8.533,8.533C409.6,252.186,405.777,256,401.067,256z"/>
</g>
<g>
	<path style="fill:#26B99A;" d="M85.333,392.533c-2.185,0-4.369-0.836-6.033-2.5c-3.337-3.337-3.337-8.73,0-12.066l34.133-34.133
		c3.328-3.337,8.738-3.337,12.066,0c3.337,3.337,3.337,8.73,0,12.066l-34.133,34.133C89.702,391.697,87.518,392.533,85.333,392.533z
		"/>
	<path style="fill:#26B99A;" d="M153.6,392.533c-2.185,0-4.369-0.836-6.033-2.5L113.434,355.9c-3.337-3.337-3.337-8.73,0-12.066
		c3.328-3.337,8.738-3.337,12.066,0l34.133,34.133c3.337,3.337,3.337,8.73,0,12.066C157.969,391.697,155.785,392.533,153.6,392.533z
		"/>
	<path style="fill:#26B99A;" d="M136.533,375.467c-2.185,0-4.369-0.836-6.033-2.5c-3.337-3.337-3.337-8.73,0-12.066l34.133-34.133
		c3.328-3.337,8.738-3.337,12.066,0c3.337,3.337,3.337,8.73,0,12.066l-34.133,34.133
		C140.902,374.63,138.718,375.467,136.533,375.467z"/>
	<path style="fill:#26B99A;" d="M204.8,375.467c-2.185,0-4.369-0.836-6.033-2.5l-34.133-34.133c-3.337-3.337-3.337-8.73,0-12.066
		c3.328-3.337,8.738-3.337,12.066,0l34.133,34.133c3.337,3.337,3.337,8.73,0,12.066C209.169,374.63,206.985,375.467,204.8,375.467z"
		/>
</g>
<g>
	<path style="fill:#BDC3C7;" d="M204.8,469.333H68.267c-4.71,0-8.533-3.814-8.533-8.533c0-4.719,3.823-8.533,8.533-8.533H204.8
		c4.71,0,8.533,3.814,8.533,8.533C213.333,465.519,209.51,469.333,204.8,469.333z"/>
	<path style="fill:#BDC3C7;" d="M162.133,435.2H68.267c-4.71,0-8.533-3.814-8.533-8.533s3.823-8.533,8.533-8.533h93.867
		c4.71,0,8.533,3.814,8.533,8.533S166.844,435.2,162.133,435.2z"/>
</g>
<g>
	<path style="fill:#26B99A;" d="M324.267,392.533c-2.185,0-4.369-0.836-6.033-2.5c-3.337-3.337-3.337-8.73,0-12.066l34.133-34.133
		c3.328-3.337,8.738-3.337,12.066,0c3.337,3.337,3.337,8.73,0,12.066L330.3,390.033
		C328.636,391.697,326.451,392.533,324.267,392.533z"/>
	<path style="fill:#26B99A;" d="M392.533,392.533c-2.185,0-4.369-0.836-6.033-2.5L352.367,355.9c-3.337-3.337-3.337-8.73,0-12.066
		c3.328-3.337,8.738-3.337,12.066,0l34.133,34.133c3.337,3.337,3.337,8.73,0,12.066
		C396.902,391.697,394.718,392.533,392.533,392.533z"/>
	<path style="fill:#26B99A;" d="M375.467,375.467c-2.185,0-4.369-0.836-6.033-2.5c-3.337-3.337-3.337-8.73,0-12.066l34.133-34.133
		c3.328-3.337,8.738-3.337,12.066,0c3.337,3.337,3.337,8.73,0,12.066L381.5,372.966C379.836,374.63,377.651,375.467,375.467,375.467
		z"/>
	<path style="fill:#26B99A;" d="M443.733,375.467c-2.185,0-4.369-0.836-6.033-2.5l-34.133-34.133c-3.337-3.337-3.337-8.73,0-12.066
		c3.328-3.337,8.738-3.337,12.066,0l34.133,34.133c3.337,3.337,3.337,8.73,0,12.066C448.102,374.63,445.918,375.467,443.733,375.467
		z"/>
</g>
<g>
	<path style="fill:#BDC3C7;" d="M443.733,469.333H307.2c-4.71,0-8.533-3.814-8.533-8.533c0-4.719,3.823-8.533,8.533-8.533h136.533
		c4.71,0,8.533,3.814,8.533,8.533C452.267,465.519,448.444,469.333,443.733,469.333z"/>
	<path style="fill:#BDC3C7;" d="M401.067,435.2H307.2c-4.71,0-8.533-3.814-8.533-8.533s3.823-8.533,8.533-8.533h93.867
		c4.71,0,8.533,3.814,8.533,8.533S405.777,435.2,401.067,435.2z"/>
</g>
<g>
	<path style="fill:#611C90;" d="M473.6,512H38.4C17.229,512,0,494.771,0,473.6V38.4C0,17.229,17.229,0,38.4,0h435.2
		C494.771,0,512,17.229,512,38.4v435.2C512,494.771,494.771,512,473.6,512z M38.4,17.067c-11.759,0-21.333,9.574-21.333,21.333
		v435.2c0,11.767,9.574,21.333,21.333,21.333h435.2c11.767,0,21.333-9.566,21.333-21.333V38.4c0-11.759-9.566-21.333-21.333-21.333
		H38.4z"/>
	<path style="fill:#611C90;" d="M76.8,85.333H42.667c-4.71,0-8.533-3.823-8.533-8.533V42.667c0-4.71,3.823-8.533,8.533-8.533H76.8
		c4.71,0,8.533,3.823,8.533,8.533V76.8C85.333,81.51,81.51,85.333,76.8,85.333z M51.2,68.267h17.067V51.2H51.2V68.267z"/>
	<path style="fill:#611C90;" d="M145.067,85.333h-34.133c-4.71,0-8.533-3.823-8.533-8.533V42.667c0-4.71,3.823-8.533,8.533-8.533
		h34.133c4.71,0,8.533,3.823,8.533,8.533V76.8C153.6,81.51,149.777,85.333,145.067,85.333z M119.467,68.267h17.067V51.2h-17.067
		V68.267z"/>
	<path style="fill:#611C90;" d="M213.333,85.333H179.2c-4.71,0-8.533-3.823-8.533-8.533V42.667c0-4.71,3.823-8.533,8.533-8.533
		h34.133c4.71,0,8.533,3.823,8.533,8.533V76.8C221.867,81.51,218.044,85.333,213.333,85.333z M187.733,68.267H204.8V51.2h-17.067
		V68.267z"/>
	<path style="fill:#611C90;" d="M503.467,119.467H8.533c-4.71,0-8.533-3.823-8.533-8.533V38.4C0,17.229,17.229,0,38.4,0h435.2
		C494.771,0,512,17.229,512,38.4v72.533C512,115.644,508.186,119.467,503.467,119.467z M17.067,102.4h477.867v-64
		c0-11.759-9.566-21.333-21.333-21.333H38.4c-11.759,0-21.333,9.574-21.333,21.333V102.4z"/>
	<path style="fill:#611C90;" d="M85.333,213.333c-2.185,0-4.369-0.836-6.033-2.5c-3.337-3.337-3.337-8.73,0-12.066l34.133-34.133
		c3.337-3.337,8.73-3.337,12.066,0c3.337,3.337,3.337,8.73,0,12.066l-34.133,34.133C89.702,212.497,87.518,213.333,85.333,213.333z"
		/>
	<path style="fill:#611C90;" d="M153.6,213.333c-2.185,0-4.369-0.836-6.033-2.5L113.434,176.7c-3.337-3.337-3.337-8.73,0-12.066
		c3.337-3.337,8.73-3.337,12.066,0l34.133,34.133c3.337,3.337,3.337,8.73,0,12.066C157.969,212.497,155.785,213.333,153.6,213.333z"
		/>
	<path style="fill:#611C90;" d="M136.533,196.267c-2.185,0-4.369-0.836-6.033-2.5c-3.337-3.337-3.337-8.73,0-12.066l34.133-34.133
		c3.337-3.337,8.73-3.337,12.066,0c3.337,3.337,3.337,8.73,0,12.066l-34.133,34.133C140.902,195.43,138.718,196.267,136.533,196.267
		z"/>
	<path style="fill:#611C90;" d="M204.8,196.267c-2.185,0-4.369-0.836-6.033-2.5l-34.133-34.133c-3.337-3.337-3.337-8.73,0-12.066
		c3.337-3.337,8.73-3.337,12.066,0l34.133,34.133c3.337,3.337,3.337,8.73,0,12.066C209.169,195.43,206.985,196.267,204.8,196.267z"
		/>
	<path style="fill:#611C90;" d="M204.8,290.133H68.267c-4.71,0-8.533-3.814-8.533-8.533c0-4.719,3.823-8.533,8.533-8.533H204.8
		c4.71,0,8.533,3.814,8.533,8.533C213.333,286.319,209.51,290.133,204.8,290.133z"/>
	<path style="fill:#611C90;" d="M162.133,256H68.267c-4.71,0-8.533-3.823-8.533-8.533s3.823-8.533,8.533-8.533h93.867
		c4.71,0,8.533,3.823,8.533,8.533S166.844,256,162.133,256z"/>
	<path style="fill:#611C90;" d="M324.267,213.333c-2.185,0-4.369-0.836-6.033-2.5c-3.337-3.337-3.337-8.73,0-12.066l34.133-34.133
		c3.337-3.337,8.73-3.337,12.066,0c3.337,3.337,3.337,8.73,0,12.066L330.3,210.833C328.636,212.497,326.451,213.333,324.267,213.333
		z"/>
	<path style="fill:#611C90;" d="M392.533,213.333c-2.185,0-4.369-0.836-6.033-2.5L352.367,176.7c-3.337-3.337-3.337-8.73,0-12.066
		c3.337-3.337,8.73-3.337,12.066,0l34.133,34.133c3.337,3.337,3.337,8.73,0,12.066C396.902,212.497,394.718,213.333,392.533,213.333
		z"/>
	<path style="fill:#611C90;" d="M375.467,196.267c-2.185,0-4.369-0.836-6.033-2.5c-3.337-3.337-3.337-8.73,0-12.066l34.133-34.133
		c3.337-3.337,8.73-3.337,12.066,0c3.337,3.337,3.337,8.73,0,12.066L381.5,193.766C379.836,195.43,377.651,196.267,375.467,196.267z
		"/>
	<path style="fill:#611C90;" d="M443.733,196.267c-2.185,0-4.369-0.836-6.033-2.5l-34.133-34.133c-3.337-3.337-3.337-8.73,0-12.066
		c3.337-3.337,8.73-3.337,12.066,0l34.133,34.133c3.337,3.337,3.337,8.73,0,12.066C448.102,195.43,445.918,196.267,443.733,196.267z
		"/>
	<path style="fill:#611C90;" d="M443.733,290.133H307.2c-4.719,0-8.533-3.814-8.533-8.533c0-4.719,3.814-8.533,8.533-8.533h136.533
		c4.719,0,8.533,3.814,8.533,8.533C452.267,286.319,448.452,290.133,443.733,290.133z"/>
	<path style="fill:#611C90;" d="M401.067,256H307.2c-4.719,0-8.533-3.823-8.533-8.533s3.814-8.533,8.533-8.533h93.867
		c4.719,0,8.533,3.823,8.533,8.533S405.786,256,401.067,256z"/>
	<path style="fill:#611C90;" d="M85.333,392.533c-2.185,0-4.369-0.836-6.033-2.5c-3.337-3.337-3.337-8.73,0-12.066l34.133-34.133
		c3.337-3.337,8.73-3.337,12.066,0s3.337,8.73,0,12.066l-34.133,34.133C89.702,391.697,87.518,392.533,85.333,392.533z"/>
	<path style="fill:#611C90;" d="M153.6,392.533c-2.185,0-4.369-0.836-6.033-2.5L113.434,355.9c-3.337-3.337-3.337-8.73,0-12.066
		s8.73-3.337,12.066,0l34.133,34.133c3.337,3.337,3.337,8.73,0,12.066C157.969,391.697,155.785,392.533,153.6,392.533z"/>
	<path style="fill:#611C90;" d="M136.533,375.467c-2.185,0-4.369-0.836-6.033-2.5c-3.337-3.337-3.337-8.73,0-12.066l34.133-34.133
		c3.337-3.337,8.73-3.337,12.066,0c3.337,3.337,3.337,8.73,0,12.066l-34.133,34.133C140.902,374.63,138.718,375.467,136.533,375.467
		z"/>
	<path style="fill:#611C90;" d="M204.8,375.467c-2.185,0-4.369-0.836-6.033-2.5l-34.133-34.133c-3.337-3.337-3.337-8.73,0-12.066
		c3.337-3.337,8.73-3.337,12.066,0l34.133,34.133c3.337,3.337,3.337,8.73,0,12.066C209.169,374.63,206.985,375.467,204.8,375.467z"
		/>
	<path style="fill:#611C90;" d="M204.8,469.333H68.267c-4.71,0-8.533-3.814-8.533-8.533c0-4.719,3.823-8.533,8.533-8.533H204.8
		c4.71,0,8.533,3.814,8.533,8.533C213.333,465.519,209.51,469.333,204.8,469.333z"/>
	<path style="fill:#611C90;" d="M162.133,435.2H68.267c-4.71,0-8.533-3.814-8.533-8.533s3.823-8.533,8.533-8.533h93.867
		c4.71,0,8.533,3.814,8.533,8.533S166.844,435.2,162.133,435.2z"/>
	<path style="fill:#611C90;" d="M324.267,392.533c-2.185,0-4.369-0.836-6.033-2.5c-3.337-3.337-3.337-8.73,0-12.066l34.133-34.133
		c3.337-3.337,8.73-3.337,12.066,0c3.337,3.337,3.337,8.73,0,12.066L330.3,390.033C328.636,391.697,326.451,392.533,324.267,392.533
		z"/>
	<path style="fill:#611C90;" d="M392.533,392.533c-2.185,0-4.369-0.836-6.033-2.5L352.367,355.9c-3.337-3.337-3.337-8.73,0-12.066
		s8.73-3.337,12.066,0l34.133,34.133c3.337,3.337,3.337,8.73,0,12.066C396.902,391.697,394.718,392.533,392.533,392.533z"/>
	<path style="fill:#611C90;" d="M375.467,375.467c-2.185,0-4.369-0.836-6.033-2.5c-3.337-3.337-3.337-8.73,0-12.066l34.133-34.133
		c3.337-3.337,8.73-3.337,12.066,0c3.337,3.337,3.337,8.73,0,12.066L381.5,372.966C379.836,374.63,377.651,375.467,375.467,375.467z
		"/>
	<path style="fill:#611C90;" d="M443.733,375.467c-2.185,0-4.369-0.836-6.033-2.5l-34.133-34.133c-3.337-3.337-3.337-8.73,0-12.066
		s8.73-3.337,12.066,0l34.133,34.133c3.337,3.337,3.337,8.73,0,12.066C448.102,374.63,445.918,375.467,443.733,375.467z"/>
	<path style="fill:#611C90;" d="M443.733,469.333H307.2c-4.719,0-8.533-3.814-8.533-8.533c0-4.719,3.814-8.533,8.533-8.533h136.533
		c4.719,0,8.533,3.814,8.533,8.533C452.267,465.519,448.452,469.333,443.733,469.333z"/>
	<path style="fill:#611C90;" d="M401.067,435.2H307.2c-4.719,0-8.533-3.814-8.533-8.533s3.814-8.533,8.533-8.533h93.867
		c4.719,0,8.533,3.814,8.533,8.533S405.786,435.2,401.067,435.2z"/>
</g>
<g>
</g>
<g>
</g>
<g>
</g>
<g>
</g>
<g>
</g>
<g>
</g>
<g>
</g>
<g>
</g>
<g>
</g>
<g>
</g>
<g>
</g>
<g>
</g>
<g>
</g>
<g>
</g>
<g>
</g>
</svg>
