<svg xmlns="http://www.w3.org/2000/svg" xmlns:xlink="http://www.w3.org/1999/xlink" viewBox="0 0 350.3 410.04"><defs><style>.cls-1{isolation:isolate;}.cls-2{fill:url(#Dégradé_sans_nom_67);}.cls-3{mix-blend-mode:multiply;}.cls-4{fill:#febb12;}.cls-5{fill:#e71c87;}.cls-6{fill:#01a1cc;}.cls-7,.cls-8{fill:none;stroke-miterlimit:10;stroke-width:2px;}.cls-7{stroke:#01a1cc;}.cls-8{stroke:#e71c87;}</style><linearGradient id="Dégradé_sans_nom_67" x1="308.7" y1="359" x2="62.05" y2="74.63" gradientUnits="userSpaceOnUse"><stop offset="0" stop-color="#e1e9f7"/><stop offset="0.58" stop-color="#d9e4f5"/><stop offset="0.98" stop-color="#d0def2"/></linearGradient></defs><title>design</title><g class="cls-1"><g id="Calque_2" data-name="Calque 2"><rect class="cls-2" width="350.3" height="410.04"/></g><g id="Calque_1" data-name="Calque 1"><g class="cls-3"><rect class="cls-4" x="174.82" y="263.43" width="53.54" height="20.5" rx="0.75"/><path class="cls-4" d="M254.24,185.22l-47.52-74.51a.63.63,0,0,0-.54-.3h-1.87a.64.64,0,0,0-.64.64v77.61h-5.08V111.05a.64.64,0,0,0-.64-.64h-2.1a.63.63,0,0,0-.53.3L147.8,185.22a10.1,10.1,0,0,0-.81,9.32l27.32,65.75h53.42l27.32-65.75A10.1,10.1,0,0,0,254.24,185.22Z" transform="translate(0.51 0.64)"/></g><g class="cls-3"><rect class="cls-5" x="144.95" y="251.44" width="53.54" height="20.5" rx="0.75"/><path class="cls-5" d="M224.37,173.23,176.85,98.72a.63.63,0,0,0-.54-.3h-1.87a.64.64,0,0,0-.64.64v77.61h-5.08V99.06a.64.64,0,0,0-.64-.64H166a.63.63,0,0,0-.54.3l-47.52,74.51a10.1,10.1,0,0,0-.81,9.32l27.32,65.75h53.42l27.32-65.75A10.1,10.1,0,0,0,224.37,173.23Z" transform="translate(0.51 0.64)"/></g><g class="cls-3"><rect class="cls-6" x="110.04" y="263.39" width="53.54" height="20.5" rx="0.75"/><path class="cls-6" d="M189.46,185.18l-47.52-74.52a.65.65,0,0,0-.54-.29h-1.87a.64.64,0,0,0-.63.64v77.61h-5.09V111a.64.64,0,0,0-.63-.64h-2.1a.65.65,0,0,0-.54.29L83,185.18a10.08,10.08,0,0,0-.81,9.31l27.32,65.76H163l27.32-65.76A10.08,10.08,0,0,0,189.46,185.18Z" transform="translate(0.51 0.64)"/></g><path class="cls-7" d="M22,295s-7.44,67,67.81,67.81" transform="translate(0.51 0.64)"/><rect class="cls-8" x="19.46" y="289.98" width="6.13" height="6.13"/><rect class="cls-8" x="90.01" y="360.4" width="6.13" height="6.13"/><path class="cls-7" d="M327.07,107s7.45-67-67.81-67.8" transform="translate(0.51 0.64)"/><rect class="cls-8" x="324.01" y="106.58" width="6.13" height="6.13" transform="translate(654.65 219.92) rotate(180)"/><rect class="cls-8" x="253.46" y="36.16" width="6.13" height="6.13" transform="translate(513.56 79.07) rotate(180)"/></g></g></svg>