<svg id="Calque_1" data-name="Calque 1" xmlns="http://www.w3.org/2000/svg" xmlns:xlink="http://www.w3.org/1999/xlink" viewBox="0 0 364.6 424.11"><defs><style>.cls-1{opacity:0.73;}.cls-19,.cls-2,.cls-23,.cls-28{fill:#fff;}.cls-3{opacity:0.69;}.cls-4{opacity:0.55;}.cls-28,.cls-5{opacity:0.38;}.cls-6{fill:url(#Dégradé_sans_nom_23);}.cls-7{fill:#edf1f7;}.cls-7,.cls-8{opacity:0.47;}.cls-8{fill:#e2e1f1;}.cls-13,.cls-25,.cls-9{fill:#3f499b;}.cls-10,.cls-9{opacity:0.58;}.cls-10{fill:#f0929d;}.cls-11{opacity:0.61;}.cls-12{fill:#6b6bb1;opacity:0.74;}.cls-14,.cls-18,.cls-26,.cls-27{fill:#6895ce;}.cls-15,.cls-24{fill:#f7a9b4;}.cls-16{fill:none;}.cls-17{fill:#4f66af;}.cls-18,.cls-20{opacity:0.36;}.cls-19{opacity:0.43;}.cls-21{opacity:0.26;}.cls-22{opacity:0.57;}.cls-23,.cls-24{opacity:0.39;}.cls-25{opacity:0.22;}.cls-26{opacity:0.32;}.cls-27{opacity:0.42;}</style><linearGradient id="Dégradé_sans_nom_23" x1="8.62" y1="342.68" x2="320.62" y2="108.02" gradientUnits="userSpaceOnUse"><stop offset="0" stop-color="#817fbc"/><stop offset="0.48" stop-color="#89a7d7"/><stop offset="0.98" stop-color="#9cd8d9"/></linearGradient></defs><title>mobile_apps</title><g class="cls-1"><path class="cls-2" d="M69.48,165a4.5,4.5,0,0,1-1.2-.16L61.41,163a4.55,4.55,0,0,1-3.18-5.58L60.52,149a38,38,0,0,1-11.05-8.57l-7.55,4.31a4.56,4.56,0,0,1-6.2-1.7l-3.53-6.18a4.55,4.55,0,0,1,1.7-6.2l7.55-4.3a38.24,38.24,0,0,1-1.75-13.89l-8.39-2.29a4.55,4.55,0,0,1-3.18-5.58L30,97.73a4.55,4.55,0,0,1,5.58-3.18L44,96.85a38.2,38.2,0,0,1,8.58-11.06l-4.31-7.55a4.56,4.56,0,0,1,1.7-6.2l6.18-3.52a4.55,4.55,0,0,1,6.2,1.69l4.3,7.55A38.44,38.44,0,0,1,80.49,76l2.3-8.38a4.55,4.55,0,0,1,5.58-3.19l6.87,1.88a4.55,4.55,0,0,1,3.18,5.58l-2.3,8.39a38.3,38.3,0,0,1,11.06,8.57l7.55-4.3a4.48,4.48,0,0,1,3.45-.44,4.56,4.56,0,0,1,2.75,2.13l3.52,6.18a4.54,4.54,0,0,1-1.69,6.2l-7.55,4.31A38.38,38.38,0,0,1,117,116.82l8.38,2.29a4.55,4.55,0,0,1,3.19,5.58l-1.88,6.87a4.55,4.55,0,0,1-5.58,3.18l-8.39-2.29a38.3,38.3,0,0,1-8.57,11.05l4.3,7.55a4.54,4.54,0,0,1-1.69,6.2l-6.19,3.52a4.45,4.45,0,0,1-3.44.44,4.53,4.53,0,0,1-2.75-2.13L90,151.53a38.16,38.16,0,0,1-13.88,1.75l-2.29,8.39A4.55,4.55,0,0,1,69.48,165ZM50,137.3l.66.78a35.92,35.92,0,0,0,11.83,9.17l.92.45L60.59,158a2.1,2.1,0,0,0,1.47,2.57l6.86,1.87A2.09,2.09,0,0,0,71.49,161l2.83-10.34,1,.08a35.73,35.73,0,0,0,14.86-1.87l1-.33,5.31,9.3a2.08,2.08,0,0,0,1.26,1,2.14,2.14,0,0,0,1.59-.2l6.18-3.53a2.09,2.09,0,0,0,.78-2.85L101,143l.78-.66a35.75,35.75,0,0,0,9.18-11.84l.44-.91,10.34,2.83a2.1,2.1,0,0,0,2.57-1.47l1.88-6.87a2,2,0,0,0-.2-1.58,2.06,2.06,0,0,0-1.26-1l-10.34-2.83.08-1a35.73,35.73,0,0,0-1.87-14.86l-.34-1,9.31-5.31a2.09,2.09,0,0,0,.78-2.85l-3.52-6.18a2.08,2.08,0,0,0-2.86-.78L106.63,92l-.65-.78A35.85,35.85,0,0,0,94.14,82l-.92-.45,2.83-10.34a2,2,0,0,0-.2-1.58,2,2,0,0,0-1.26-1l-6.87-1.88a2.09,2.09,0,0,0-2.57,1.46L82.32,78.61l-1-.08A35.71,35.71,0,0,0,66.45,80.4l-1,.34-5.31-9.31a2,2,0,0,0-1.27-1,2,2,0,0,0-1.58.2l-6.19,3.52A2.1,2.1,0,0,0,50.36,77l5.31,9.3-.78.66a35.85,35.85,0,0,0-9.17,11.84l-.45.92L34.93,96.92a2.09,2.09,0,0,0-2.57,1.46l-1.87,6.87a2,2,0,0,0,.2,1.58,2,2,0,0,0,1.26,1l10.34,2.83-.09,1a35.9,35.9,0,0,0,1.88,14.86l.33,1-9.31,5.31a2.09,2.09,0,0,0-.78,2.85l3.53,6.19a2.09,2.09,0,0,0,2.85.78Zm28.35-2.17a20.66,20.66,0,0,1-5.44-.73h0a20.4,20.4,0,1,1,5.44.73Zm-.07-38.52a18.09,18.09,0,1,0,4.79.65A18.24,18.24,0,0,0,78.29,96.61Z" transform="translate(8 9.21)"/></g><g class="cls-3"><path class="cls-2" d="M268.24,142.89l-46.24.84a2.22,2.22,0,0,1-2.46-1.88l-.56-30.7a2.23,2.23,0,0,1,2.39-2l46.24-.84a2.22,2.22,0,0,1,2.46,1.89l.56,30.7A2.22,2.22,0,0,1,268.24,142.89Zm-46.86-33.14c-1,0-1.84.64-1.83,1.38l.56,30.71c0,.75.86,1.34,1.88,1.32l46.24-.84c1,0,1.84-.64,1.82-1.39l-.56-30.7c0-.75-.85-1.34-1.87-1.32Z" transform="translate(8 9.21)"/><rect class="cls-2" x="219.35" y="115.01" width="50.22" height="0.57" transform="translate(5.95 13.67) rotate(-1.04)"/><path class="cls-2" d="M223,113.92a1.08,1.08,0,1,1,1.07-1.1A1.08,1.08,0,0,1,223,113.92Zm0-1.59a.51.51,0,0,0-.5.52.5.5,0,0,0,.51.5.51.51,0,0,0,.5-.52A.5.5,0,0,0,222.94,112.33Z" transform="translate(8 9.21)"/><path class="cls-2" d="M225.94,113.87a1.08,1.08,0,1,1,1.07-1.1A1.09,1.09,0,0,1,225.94,113.87Zm0-1.59a.51.51,0,0,0-.5.52.51.51,0,0,0,1,0A.5.5,0,0,0,225.92,112.28Z" transform="translate(8 9.21)"/><path class="cls-2" d="M228.87,113.81a1.08,1.08,0,1,1,0-2.16,1.08,1.08,0,0,1,0,2.16Zm0-1.58a.5.5,0,0,0-.5.51.51.51,0,0,0,.52.5.5.5,0,0,0,.49-.52A.49.49,0,0,0,228.84,112.23Z" transform="translate(8 9.21)"/></g><g class="cls-3"><path class="cls-2" d="M113,326.42l-46.25.84a2.22,2.22,0,0,1-2.45-1.89l-.56-30.7a2.22,2.22,0,0,1,2.39-2l46.24-.84a2.22,2.22,0,0,1,2.46,1.88l.55,30.7A2.22,2.22,0,0,1,113,326.42ZM66.18,293.27c-1,0-1.84.64-1.83,1.39l.56,30.7c0,.75.85,1.34,1.87,1.32l46.25-.84c1,0,1.83-.64,1.82-1.38l-.56-30.71c0-.75-.85-1.34-1.87-1.32Z" transform="translate(8 9.21)"/><rect class="cls-2" x="64.15" y="298.54" width="50.22" height="0.57" transform="translate(2.59 10.88) rotate(-1.04)"/><path class="cls-2" d="M67.76,297.44a1.08,1.08,0,0,1-1.1-1.06,1.08,1.08,0,1,1,2.16,0A1.07,1.07,0,0,1,67.76,297.44Zm0-1.58a.49.49,0,0,0-.49.51.5.5,0,0,0,.51.5.51.51,0,0,0,.5-.52A.5.5,0,0,0,67.73,295.86Z" transform="translate(8 9.21)"/><path class="cls-2" d="M70.74,297.39a1.08,1.08,0,1,1,1.06-1.1A1.08,1.08,0,0,1,70.74,297.39Zm0-1.59a.51.51,0,0,0,0,1,.51.51,0,1,0,0-1Z" transform="translate(8 9.21)"/><path class="cls-2" d="M73.67,297.34a1.08,1.08,0,0,1-1.1-1.06,1.08,1.08,0,1,1,2.16,0A1.09,1.09,0,0,1,73.67,297.34Zm0-1.59a.51.51,0,0,0-.5.52.5.5,0,0,0,.52.49.49.49,0,0,0,.49-.51A.5.5,0,0,0,73.64,295.75Z" transform="translate(8 9.21)"/></g><g class="cls-4"><path class="cls-2" d="M305.18,239.54l-4.78-3.83a23.54,23.54,0,0,0,2.73-9.4l6.09-.67a2.09,2.09,0,0,0,1.86-2.31l-.49-4.48a2.1,2.1,0,0,0-2.32-1.85l-6.09.67a23.73,23.73,0,0,0-4.71-8.58l3.83-4.78a2.11,2.11,0,0,0-.32-2.95l-3.51-2.81a2.1,2.1,0,0,0-3,.32l-3.84,4.79a23.51,23.51,0,0,0-9.4-2.74l-.67-6.09A2.1,2.1,0,0,0,278.3,193l-4.47.5a2.1,2.1,0,0,0-1.86,2.31l.67,6.09a23.48,23.48,0,0,0-8.57,4.72l-4.79-3.84a2.09,2.09,0,0,0-2.94.33l-2.82,3.51a2.1,2.1,0,0,0,.33,2.95l4.78,3.83a23.38,23.38,0,0,0-2.73,9.4l-6.1.67a2.09,2.09,0,0,0-1.85,2.31l.49,4.48a2.09,2.09,0,0,0,2.31,1.85l6.1-.67a23.43,23.43,0,0,0,4.71,8.58l-3.83,4.78a2.1,2.1,0,0,0,.32,2.95l3.51,2.81a2.1,2.1,0,0,0,2.95-.32l3.83-4.79a23.6,23.6,0,0,0,9.4,2.74l.67,6.09a2.11,2.11,0,0,0,2.32,1.86l4.47-.5a2.09,2.09,0,0,0,1.85-2.31l-.67-6.09a23.6,23.6,0,0,0,8.58-4.72l4.78,3.84a2.1,2.1,0,0,0,2.95-.33l2.82-3.51A2.11,2.11,0,0,0,305.18,239.54ZM271.9,234A12.17,12.17,0,1,1,289,232.15,12.17,12.17,0,0,1,271.9,234Z" transform="translate(8 9.21)"/><path class="cls-2" d="M280.49,256.53A2.5,2.5,0,0,1,278,254.3l-.64-5.76a23.85,23.85,0,0,1-8.92-2.6l-3.62,4.52a2.49,2.49,0,0,1-3.52.39L257.8,248a2.49,2.49,0,0,1-.39-3.52L261,240a23.8,23.8,0,0,1-4.47-8.15l-5.76.64A2.49,2.49,0,0,1,249,232a2.55,2.55,0,0,1-.93-1.68l-.49-4.47a2.49,2.49,0,0,1,.54-1.84,2.52,2.52,0,0,1,1.68-.93l5.76-.63a23.65,23.65,0,0,1,2.59-8.92l-4.52-3.63a2.51,2.51,0,0,1-.39-3.52l2.82-3.51a2.45,2.45,0,0,1,1.68-.92,2.49,2.49,0,0,1,1.84.53l4.52,3.63a23.78,23.78,0,0,1,8.14-4.48l-.63-5.75a2.51,2.51,0,0,1,2.21-2.77l4.48-.49a2.5,2.5,0,0,1,2.76,2.21l.63,5.76a23.89,23.89,0,0,1,8.93,2.6l3.62-4.52a2.51,2.51,0,0,1,3.52-.39l3.51,2.81a2.49,2.49,0,0,1,.92,1.68,2.44,2.44,0,0,1-.53,1.84L298,209.08a23.8,23.8,0,0,1,4.47,8.15l5.76-.64a2.5,2.5,0,0,1,1.84.54,2.47,2.47,0,0,1,.92,1.68l.5,4.47a2.49,2.49,0,0,1-.54,1.84,2.55,2.55,0,0,1-1.68.93l-5.76.63a23.83,23.83,0,0,1-2.59,8.92l4.52,3.63a2.45,2.45,0,0,1,.92,1.68,2.5,2.5,0,0,1-.54,1.84L303,246.26a2.51,2.51,0,0,1-3.52.39L295,243a23.82,23.82,0,0,1-8.15,4.48l.64,5.76a2.51,2.51,0,0,1-.54,1.84,2.45,2.45,0,0,1-1.68.92l-4.47.49ZM268.24,244.9l.3.16a22.84,22.84,0,0,0,9.23,2.69l.34,0,.71,6.43a1.68,1.68,0,0,0,1.86,1.49l4.47-.49a1.7,1.7,0,0,0,1.5-1.87l-.71-6.43.32-.09a23.08,23.08,0,0,0,8.43-4.64L295,242l5.05,4a1.69,1.69,0,0,0,2.37-.26l2.82-3.51a1.7,1.7,0,0,0-.26-2.38h0l-5.05-4,.16-.3a23.08,23.08,0,0,0,2.68-9.24l0-.34,6.43-.71a1.68,1.68,0,0,0,1.49-1.86l-.49-4.47a1.67,1.67,0,0,0-.62-1.13,1.63,1.63,0,0,0-1.24-.36l-6.43.71-.1-.33a23,23,0,0,0-4.63-8.43l-.23-.26,4.05-5a1.69,1.69,0,0,0-.26-2.37l-3.51-2.81a1.68,1.68,0,0,0-2.37.26l-4,5.05-.3-.16a22.89,22.89,0,0,0-9.24-2.69l-.33,0-.71-6.43a1.69,1.69,0,0,0-1.86-1.49l-4.48.49a1.64,1.64,0,0,0-1.13.63,1.68,1.68,0,0,0-.36,1.24l.71,6.43-.33.09a23.16,23.16,0,0,0-8.43,4.64l-.25.22L259,203.07a1.69,1.69,0,0,0-1.24-.36,1.71,1.71,0,0,0-1.14.62l-2.81,3.51a1.7,1.7,0,0,0,.26,2.38l5,4-.16.3a23.09,23.09,0,0,0-2.69,9.24l0,.34-6.43.71a1.71,1.71,0,0,0-1.14.62,1.68,1.68,0,0,0-.36,1.24l.5,4.47a1.68,1.68,0,0,0,1.86,1.49l6.43-.7.1.32a23,23,0,0,0,4.63,8.43l.22.26-4,5.05a1.68,1.68,0,0,0-.37,1.24,1.64,1.64,0,0,0,.63,1.13l3.51,2.81a1.59,1.59,0,0,0,1.24.36,1.67,1.67,0,0,0,1.13-.62Zm11.26-7.79a12.57,12.57,0,1,1,9.83-4.7A12.48,12.48,0,0,1,279.5,237.11Zm0-24.33a11.38,11.38,0,0,0-1.31.07,11.64,11.64,0,0,0-7.89,4.33,11.77,11.77,0,1,0,9.2-4.4Z" transform="translate(8 9.21)"/></g><g class="cls-5"><path class="cls-2" d="M335.68,275.87H289.4a1.6,1.6,0,0,1-1.45-1.72v-17a1.61,1.61,0,0,1,1.45-1.73h46.28a1.61,1.61,0,0,1,1.45,1.73v17A1.6,1.6,0,0,1,335.68,275.87ZM289.4,256.21c-.34,0-.63.42-.63.91v17c0,.49.29.91.63.91h46.28c.34,0,.63-.42.63-.91v-17c0-.49-.29-.91-.63-.91Z" transform="translate(8 9.21)"/><rect class="cls-2" x="305.48" y="271.19" width="31.33" height="0.82"/><path class="cls-2" d="M328.8,263.2H297.48a.82.82,0,1,1,0-1.63H328.8a.82.82,0,1,1,0,1.63Zm0-.81v0Z" transform="translate(8 9.21)"/><rect class="cls-2" x="305.48" y="274.91" width="14" height="0.82"/><path class="cls-2" d="M311.47,266.92h-14a.82.82,0,0,1,0-1.64h14a.82.82,0,1,1,0,1.64Zm0-.82v0Z" transform="translate(8 9.21)"/><rect class="cls-2" x="322.81" y="274.91" width="14" height="0.82"/><path class="cls-2" d="M328.8,266.92h-14a.82.82,0,0,1,0-1.64h14a.82.82,0,1,1,0,1.64Zm0-.82v0Z" transform="translate(8 9.21)"/><rect class="cls-2" x="305.48" y="278.79" width="31.33" height="0.82"/><path class="cls-2" d="M328.8,270.81H297.48a.82.82,0,0,1,0-1.64H328.8a.82.82,0,1,1,0,1.64Zm0-.82v0Z" transform="translate(8 9.21)"/></g><g class="cls-4"><path class="cls-2" d="M206.82,351.58a2.82,2.82,0,0,1-1.77-.63A2.77,2.77,0,0,1,204,349l-.58-5.22a23.31,23.31,0,0,1-8.12-2.37L192,345.56a2.85,2.85,0,0,1-4,.44l-3.4-2.73a2.85,2.85,0,0,1-.44-4l3.29-4.11a23.33,23.33,0,0,1-4.07-7.41l-5.23.57a2.85,2.85,0,0,1-3.14-2.51l-.47-4.33a2.85,2.85,0,0,1,2.51-3.14l5.23-.57a23.41,23.41,0,0,1,2.36-8.13l-4.1-3.29a2.85,2.85,0,0,1-.44-4l2.72-3.39a2.84,2.84,0,0,1,4-.44l4.1,3.29a23.32,23.32,0,0,1,7.42-4.08l-.58-5.22a2.85,2.85,0,0,1,.61-2.09,2.79,2.79,0,0,1,1.91-1.05l4.32-.48a2.85,2.85,0,0,1,2.09.61,2.79,2.79,0,0,1,1.05,1.91l.58,5.22a23.31,23.31,0,0,1,8.12,2.37l3.29-4.1a2.85,2.85,0,0,1,4-.45l3.4,2.73a2.85,2.85,0,0,1,.44,4l-3.29,4.11a23.33,23.33,0,0,1,4.07,7.41l5.23-.57a2.86,2.86,0,0,1,3.14,2.51l.47,4.33a2.85,2.85,0,0,1-2.51,3.14l-5.23.57a23.41,23.41,0,0,1-2.36,8.13l4.1,3.29h0a2.84,2.84,0,0,1,.44,4l-2.72,3.39a2.84,2.84,0,0,1-4,.44l-4.1-3.29a23.32,23.32,0,0,1-7.42,4.08l.58,5.22a2.85,2.85,0,0,1-2.52,3.14l-4.32.48Zm-12-12.2.6.32a21.94,21.94,0,0,0,8.76,2.55l.68.05.72,6.56a1.27,1.27,0,0,0,.45.82,1.19,1.19,0,0,0,.89.25l4.32-.47a1.23,1.23,0,0,0,.81-.45,1.15,1.15,0,0,0,.26-.89l-.72-6.56.65-.2a21.74,21.74,0,0,0,8-4.39l.52-.45,5.15,4.13a1.16,1.16,0,0,0,.89.26,1.18,1.18,0,0,0,.81-.44l2.72-3.4a1.14,1.14,0,0,0,.26-.89,1.2,1.2,0,0,0-.44-.81h0L225,331.24l.32-.6a21.73,21.73,0,0,0,2.55-8.76l.05-.68,6.57-.72a1.21,1.21,0,0,0,1.07-1.33l-.48-4.33a1.21,1.21,0,0,0-1.33-1.07l-6.57.73-.19-.65a21.87,21.87,0,0,0-4.4-8l-.44-.51,4.13-5.16a1.2,1.2,0,0,0-.19-1.7l-3.39-2.72a1.21,1.21,0,0,0-1.7.19l-4.13,5.15-.6-.32a21.94,21.94,0,0,0-8.76-2.55l-.68,0-.72-6.56a1.23,1.23,0,0,0-.45-.81,1.15,1.15,0,0,0-.89-.26l-4.32.47a1.23,1.23,0,0,0-.81.45,1.15,1.15,0,0,0-.26.89l.72,6.56-.65.2a21.74,21.74,0,0,0-8,4.39l-.52.45-5.15-4.13a1.16,1.16,0,0,0-.89-.26,1.18,1.18,0,0,0-.81.44l-2.72,3.4a1.14,1.14,0,0,0-.26.89,1.2,1.2,0,0,0,.44.81l5.16,4.13-.32.6a21.73,21.73,0,0,0-2.55,8.76l-.05.68-6.57.72a1.21,1.21,0,0,0-1.07,1.33l.48,4.33a1.21,1.21,0,0,0,1.33,1.07l6.57-.73.19.65a21.87,21.87,0,0,0,4.4,8l.44.51-4.13,5.16a1.2,1.2,0,0,0,.19,1.7l3.39,2.72a1.21,1.21,0,0,0,1.7-.19Zm11-6.57a12.58,12.58,0,1,1,9.83-4.71A12.53,12.53,0,0,1,205.86,332.81Zm0-23.53a9.87,9.87,0,0,0-1.22.07A10.94,10.94,0,0,0,199,328.77h0a10.94,10.94,0,1,0,6.87-19.49Z" transform="translate(8 9.21)"/></g><rect class="cls-6" width="364.6" height="424.11"/><path class="cls-7" d="M335.23,89.93a17.53,17.53,0,0,0-7.59-23.6c-8.62-4.42-25.17-4.09-29.59,4.52s8.84,16,14.24,24C319.83,106.08,330.8,98.54,335.23,89.93Z" transform="translate(8 9.21)"/><path class="cls-8" d="M295.35,346.28a13.44,13.44,0,0,0,18.57-4c4-6.23,5-18.87-1.2-22.9s-12.87,5.53-19.41,9C284.2,333.32,289.12,342.26,295.35,346.28Z" transform="translate(8 9.21)"/><path class="cls-8" d="M41,42.06a16.93,16.93,0,0,0-23.93.88c-6.37,6.86-10.39,22.34-3.54,28.7s17.2-4,26.08-7C52,60.6,47.87,48.42,41,42.06Z" transform="translate(8 9.21)"/><circle class="cls-9" cx="336.67" cy="312.86" r="3.34"/><circle class="cls-9" cx="182.6" cy="52.92" r="3.34"/><circle class="cls-9" cx="62.11" cy="343.62" r="3.34"/><circle class="cls-10" cx="272.62" cy="357.64" r="2.59"/><circle class="cls-10" cx="325.16" cy="371.03" r="3.34"/><circle class="cls-9" cx="46.68" cy="91.24" r="1.11"/><path class="cls-10" d="M276.2,67.35a4,4,0,1,1-3.08-4.76A4,4,0,0,1,276.2,67.35Z" transform="translate(8 9.21)"/><path class="cls-10" d="M62.16,47.37A1.57,1.57,0,1,1,61,45.51,1.57,1.57,0,0,1,62.16,47.37Z" transform="translate(8 9.21)"/><path class="cls-9" d="M312.5,42.34a1.34,1.34,0,1,1-1-1.58A1.34,1.34,0,0,1,312.5,42.34Z" transform="translate(8 9.21)"/><path class="cls-9" d="M30.08,360.76a1.35,1.35,0,0,1-1.59,1,1.33,1.33,0,1,1,1.59-1Z" transform="translate(8 9.21)"/><g class="cls-1"><path class="cls-2" d="M76.86,168.36a4.09,4.09,0,0,1-1.09-.15l-6.23-1.7a4.12,4.12,0,0,1-2.88-5.06l2.08-7.6a34.72,34.72,0,0,1-10-7.78L51.87,150a4.13,4.13,0,0,1-5.62-1.54l-3.2-5.61a4.13,4.13,0,0,1,1.54-5.62l6.84-3.9a34.63,34.63,0,0,1-1.58-12.59l-7.61-2.08a4.12,4.12,0,0,1-2.88-5.06l1.7-6.23a4.12,4.12,0,0,1,5.06-2.88l7.6,2.08a34.72,34.72,0,0,1,7.78-10l-3.91-6.84a4.13,4.13,0,0,1,1.54-5.62l5.61-3.2a4.13,4.13,0,0,1,5.62,1.54l3.9,6.84a34.63,34.63,0,0,1,12.59-1.58l2.08-7.61A4.12,4.12,0,0,1,94,77.17l6.23,1.7a4.12,4.12,0,0,1,2.88,5.06L101,91.53a34.72,34.72,0,0,1,10,7.78l6.84-3.91a4.13,4.13,0,0,1,5.62,1.54l3.2,5.61a4,4,0,0,1,.39,3.13,4.09,4.09,0,0,1-1.93,2.49l-6.84,3.9a34.63,34.63,0,0,1,1.58,12.59l7.61,2.08a4.11,4.11,0,0,1,2.88,5.06L128.7,138a4.12,4.12,0,0,1-5.06,2.88l-7.6-2.08a34.72,34.72,0,0,1-7.78,10l3.91,6.84a4.13,4.13,0,0,1-1.54,5.62l-5.61,3.2A4.13,4.13,0,0,1,99.4,163l-3.9-6.84a34.63,34.63,0,0,1-12.59,1.58l-2.08,7.61a4.11,4.11,0,0,1-4,3ZM59.21,143.23l.59.71a32.7,32.7,0,0,0,10.74,8.32l.83.4L68.8,162a1.9,1.9,0,0,0,.18,1.44,1.94,1.94,0,0,0,1.15.89l6.23,1.7a1.89,1.89,0,0,0,2.33-1.33l2.56-9.37.92.07a32.49,32.49,0,0,0,13.48-1.7l.87-.3,4.81,8.44a1.9,1.9,0,0,0,2.59.71l5.61-3.2a1.91,1.91,0,0,0,.89-1.15,1.87,1.87,0,0,0-.19-1.44l-4.81-8.44.71-.59A32.7,32.7,0,0,0,114.45,137l.4-.83,9.38,2.57a1.91,1.91,0,0,0,2.33-1.33l1.7-6.23a1.89,1.89,0,0,0-1.33-2.33l-9.37-2.56.07-.92a32.33,32.33,0,0,0-1.7-13.48l-.3-.87,8.44-4.81a1.9,1.9,0,0,0,.71-2.59L121.58,98a1.91,1.91,0,0,0-1.15-.89,1.87,1.87,0,0,0-1.44.19l-8.44,4.81-.59-.71a32.7,32.7,0,0,0-10.74-8.32l-.83-.4L101,83.34a1.9,1.9,0,0,0-.18-1.44A1.94,1.94,0,0,0,99.63,81l-6.23-1.7a1.9,1.9,0,0,0-2.33,1.33L88.51,90l-.92-.07a32.47,32.47,0,0,0-13.48,1.7l-.87.3L68.43,83.5a1.9,1.9,0,0,0-2.59-.71L60.23,86a1.91,1.91,0,0,0-.89,1.15,1.87,1.87,0,0,0,.19,1.44L64.34,97l-.71.59a32.7,32.7,0,0,0-8.32,10.74l-.4.83-9.38-2.57a1.91,1.91,0,0,0-1.44.18,1.94,1.94,0,0,0-.89,1.15l-1.7,6.23a1.89,1.89,0,0,0,1.33,2.33l9.37,2.56-.07.92a32.49,32.49,0,0,0,1.7,13.48l.3.87-8.44,4.81a1.9,1.9,0,0,0-.71,2.59l3.2,5.61a1.91,1.91,0,0,0,1.15.89,1.87,1.87,0,0,0,1.44-.19Zm25.7-2A18.48,18.48,0,0,1,80,140.6h0a18.42,18.42,0,1,1,4.93.67Zm-.06-34.93a16.36,16.36,0,1,0,4.34.58A16.49,16.49,0,0,0,84.85,106.34Z" transform="translate(8 9.21)"/></g><g class="cls-3"><path class="cls-2" d="M257.09,148.3l-41.93.77a2,2,0,0,1-2.23-1.71l-.5-27.84a2,2,0,0,1,2.16-1.79l41.93-.76a2,2,0,0,1,2.23,1.7l.51,27.85A2,2,0,0,1,257.09,148.3ZM214.6,118.25c-.92,0-1.66.58-1.65,1.26l.5,27.84c0,.68.78,1.21,1.7,1.2l41.93-.77c.93,0,1.67-.58,1.66-1.25l-.51-27.85c0-.67-.77-1.21-1.7-1.19Z" transform="translate(8 9.21)"/><rect class="cls-2" x="212.76" y="123.02" width="45.54" height="0.52" transform="matrix(1, -0.02, 0.02, 1, 5.8, 13.51)"/><path class="cls-2" d="M216,122a1,1,0,1,1,1-1A1,1,0,0,1,216,122Zm0-1.44a.47.47,0,0,0-.45.47.47.47,0,0,0,.47.45.45.45,0,0,0,.45-.47A.46.46,0,0,0,216,120.59Z" transform="translate(8 9.21)"/><path class="cls-2" d="M218.74,122a1,1,0,1,1,1-1A1,1,0,0,1,218.74,122Zm0-1.44a.47.47,0,0,0-.46.47.46.46,0,0,0,.47.45.44.44,0,0,0,.45-.46A.46.46,0,0,0,218.72,120.54Z" transform="translate(8 9.21)"/><path class="cls-2" d="M221.39,121.94a1,1,0,1,1,1-1A1,1,0,0,1,221.39,121.94Zm0-1.44a.44.44,0,0,0-.45.46.46.46,0,0,0,.46.46.47.47,0,0,0,.46-.47A.46.46,0,0,0,221.37,120.5Z" transform="translate(8 9.21)"/></g><g class="cls-3"><path class="cls-2" d="M116.36,314.72l-41.93.76a2,2,0,0,1-2.23-1.7l-.51-27.85a2,2,0,0,1,2.17-1.78l41.93-.77a2,2,0,0,1,2.23,1.71l.5,27.84A2,2,0,0,1,116.36,314.72ZM73.87,284.67c-.93,0-1.67.58-1.66,1.25l.51,27.85c0,.67.77,1.21,1.7,1.19l41.93-.76c.92,0,1.67-.58,1.65-1.26l-.5-27.84c0-.67-.78-1.21-1.7-1.2Z" transform="translate(8 9.21)"/><rect class="cls-2" x="72.02" y="289.44" width="45.54" height="0.52" transform="translate(2.76 10.98) rotate(-1.04)"/><path class="cls-2" d="M75.3,288.45a1,1,0,1,1,1-1A1,1,0,0,1,75.3,288.45Zm0-1.44a.47.47,0,0,0-.45.47.45.45,0,0,0,.47.45.46.46,0,0,0,.45-.47A.47.47,0,0,0,75.28,287Z" transform="translate(8 9.21)"/><path class="cls-2" d="M78,288.4a1,1,0,1,1,1-1A1,1,0,0,1,78,288.4ZM78,287a.47.47,0,0,0-.45.47.45.45,0,0,0,.47.45.46.46,0,0,0,.45-.47A.47.47,0,0,0,78,287Z" transform="translate(8 9.21)"/><path class="cls-2" d="M80.66,288.35a1,1,0,1,1,1-1A1,1,0,0,1,80.66,288.35Zm0-1.44a.47.47,0,0,0-.45.47.45.45,0,0,0,.47.45.46.46,0,0,0,.45-.46A.47.47,0,0,0,80.63,286.91Z" transform="translate(8 9.21)"/></g><g class="cls-4"><path class="cls-2" d="M290.59,236l-4.33-3.48a21.42,21.42,0,0,0,2.48-8.52l5.52-.61a1.91,1.91,0,0,0,1.68-2.1l-.44-4.05a1.91,1.91,0,0,0-2.1-1.69l-5.53.61a21.4,21.4,0,0,0-4.27-7.78l3.48-4.33a1.92,1.92,0,0,0-.3-2.68l-3.18-2.55a1.9,1.9,0,0,0-2.67.3l-3.48,4.33a21.47,21.47,0,0,0-8.53-2.48l-.6-5.52a1.91,1.91,0,0,0-2.1-1.68l-4.06.44a1.91,1.91,0,0,0-1.68,2.1l.61,5.53a21.4,21.4,0,0,0-7.78,4.27L249,202.59a1.89,1.89,0,0,0-2.67.29l-2.55,3.18a1.91,1.91,0,0,0,.29,2.68l4.34,3.47a21.47,21.47,0,0,0-2.48,8.53l-5.52.6a1.9,1.9,0,0,0-1.68,2.1l.44,4.06a1.91,1.91,0,0,0,2.1,1.68l5.52-.61a21.43,21.43,0,0,0,4.28,7.78l-3.48,4.34a1.9,1.9,0,0,0,.3,2.67l3.18,2.55a1.89,1.89,0,0,0,2.67-.29l3.48-4.34a21.42,21.42,0,0,0,8.52,2.48l.61,5.52a1.91,1.91,0,0,0,2.1,1.69l4.05-.45a1.91,1.91,0,0,0,1.69-2.1l-.61-5.52a21.43,21.43,0,0,0,7.78-4.28l4.33,3.48a1.92,1.92,0,0,0,2.68-.3l2.55-3.18A1.89,1.89,0,0,0,290.59,236Zm-30.17-5a11,11,0,1,1,15.51-1.71A11,11,0,0,1,260.42,231Z" transform="translate(8 9.21)"/><path class="cls-2" d="M268.21,251.35a2.28,2.28,0,0,1-2.26-2l-.57-5.22a21.63,21.63,0,0,1-8.09-2.35l-3.29,4.1a2.26,2.26,0,0,1-3.19.35l-3.18-2.55a2.27,2.27,0,0,1-.36-3.19l3.29-4.1A21.65,21.65,0,0,1,246.5,229l-5.22.58a2.28,2.28,0,0,1-2.51-2l-.44-4.06a2.25,2.25,0,0,1,2-2.5l5.22-.58a21.63,21.63,0,0,1,2.35-8.09l-4.1-3.29a2.26,2.26,0,0,1-.35-3.19l2.55-3.18a2.26,2.26,0,0,1,3.19-.35l4.1,3.28a21.82,21.82,0,0,1,7.39-4.06l-.58-5.22a2.28,2.28,0,0,1,2-2.5l4.06-.45a2.26,2.26,0,0,1,2.5,2l.58,5.22a21.63,21.63,0,0,1,8.09,2.35l3.29-4.1a2.28,2.28,0,0,1,3.19-.35L287,201a2.27,2.27,0,0,1,.35,3.2l-3.28,4.1a21.68,21.68,0,0,1,4.06,7.38l5.22-.57a2.25,2.25,0,0,1,2.5,2l.45,4a2.24,2.24,0,0,1-.48,1.67,2.31,2.31,0,0,1-1.53.84l-5.22.57a21.63,21.63,0,0,1-2.35,8.09l4.1,3.29a2.28,2.28,0,0,1,.35,3.19L288.63,242a2.28,2.28,0,0,1-3.2.36l-4.1-3.29a21.51,21.51,0,0,1-7.38,4.06l.57,5.22a2.24,2.24,0,0,1-.48,1.67,2.29,2.29,0,0,1-1.52.84l-4.06.44Zm-11.12-10.54.28.14a20.82,20.82,0,0,0,8.37,2.44l.31,0,.64,5.83a1.53,1.53,0,0,0,1.69,1.36l4.05-.45a1.53,1.53,0,0,0,1.36-1.69l-.65-5.83.3-.09a20.88,20.88,0,0,0,7.64-4.2l.24-.2,4.58,3.67a1.54,1.54,0,0,0,2.15-.24l2.55-3.18a1.52,1.52,0,0,0-.24-2.15h0l-4.58-3.67.15-.28a20.82,20.82,0,0,0,2.44-8.37l0-.31,5.83-.64a1.5,1.5,0,0,0,1-.56,1.53,1.53,0,0,0,.32-1.13l-.44-4.05a1.55,1.55,0,0,0-.57-1,1.47,1.47,0,0,0-1.12-.33l-5.83.65-.09-.3a21,21,0,0,0-4.2-7.64l-.2-.24,3.67-4.58a1.54,1.54,0,0,0-.24-2.15l-3.18-2.55a1.54,1.54,0,0,0-2.16.24l-3.67,4.58-.27-.15a20.86,20.86,0,0,0-8.37-2.44l-.31,0-.64-5.83a1.54,1.54,0,0,0-1.69-1.35l-4.06.44a1.55,1.55,0,0,0-1.35,1.69l.64,5.83-.29.09a21,21,0,0,0-7.65,4.2l-.23.2-4.58-3.67a1.54,1.54,0,0,0-2.15.24L244,206.29a1.53,1.53,0,0,0-.33,1.13,1.55,1.55,0,0,0,.57,1l4.57,3.67-.14.27a20.86,20.86,0,0,0-2.44,8.37l0,.31-5.83.64a1.55,1.55,0,0,0-1,.57,1.51,1.51,0,0,0-.33,1.12l.45,4.06a1.56,1.56,0,0,0,.56,1,1.53,1.53,0,0,0,1.13.33l5.83-.64.09.29a20.93,20.93,0,0,0,4.2,7.65l.2.23-3.67,4.58a1.52,1.52,0,0,0,.24,2.15l3.18,2.55a1.49,1.49,0,0,0,1.13.33,1.56,1.56,0,0,0,1-.56Zm10.22-7.07a11.4,11.4,0,1,1,8.91-4.26A11.35,11.35,0,0,1,267.31,233.74Zm0-22.06c-.39,0-.79,0-1.19.06a10.77,10.77,0,1,0,1.19-.06Z" transform="translate(8 9.21)"/></g><g class="cls-5"><path class="cls-2" d="M318.25,268.89h-42a1.45,1.45,0,0,1-1.31-1.56V251.88a1.45,1.45,0,0,1,1.31-1.56h42a1.45,1.45,0,0,1,1.31,1.56v15.45A1.45,1.45,0,0,1,318.25,268.89Zm-42-17.83c-.31,0-.57.38-.57.82v15.45c0,.44.26.82.57.82h42c.31,0,.57-.38.57-.82V251.88c0-.44-.26-.82-.57-.82Z" transform="translate(8 9.21)"/><rect class="cls-2" x="291.61" y="265.5" width="28.41" height="0.74"/><path class="cls-2" d="M312,257.4H283.61a.74.74,0,1,1,0-1.48H312a.74.74,0,0,1,0,1.48Zm0-.74v0Z" transform="translate(8 9.21)"/><rect class="cls-2" x="291.61" y="268.87" width="12.69" height="0.74"/><path class="cls-2" d="M296.3,260.77H283.61a.74.74,0,1,1,0-1.48H296.3a.74.74,0,0,1,0,1.48Zm0-.74v0Z" transform="translate(8 9.21)"/><rect class="cls-2" x="307.32" y="268.87" width="12.69" height="0.74"/><path class="cls-2" d="M312,260.77h-12.7a.74.74,0,1,1,0-1.48H312a.74.74,0,0,1,0,1.48Zm0-.74v0Z" transform="translate(8 9.21)"/><rect class="cls-2" x="291.61" y="272.4" width="28.41" height="0.74"/><path class="cls-2" d="M312,264.3H283.61a.74.74,0,0,1,0-1.48H312a.74.74,0,0,1,0,1.48Zm0-.74v0Z" transform="translate(8 9.21)"/></g><g class="cls-4"><path class="cls-2" d="M201.4,337.54a2.59,2.59,0,0,1-2.56-2.3l-.52-4.74a21.13,21.13,0,0,1-7.37-2.14l-3,3.72a2.59,2.59,0,0,1-3.63.4L181.27,330a2.58,2.58,0,0,1-.4-3.62l3-3.73a21.15,21.15,0,0,1-3.7-6.72l-4.74.52a2.58,2.58,0,0,1-2.84-2.28l-.43-3.92a2.58,2.58,0,0,1,2.28-2.85l4.73-.52a21.36,21.36,0,0,1,2.15-7.37l-3.72-3a2.59,2.59,0,0,1-.4-3.63l2.47-3.07a2.55,2.55,0,0,1,3.62-.4l3.72,3a21.2,21.2,0,0,1,6.73-3.7L193.2,284a2.58,2.58,0,0,1,2.28-2.84l3.92-.44a2.57,2.57,0,0,1,1.89.56,2.52,2.52,0,0,1,1,1.73l.53,4.73a21.43,21.43,0,0,1,7.37,2.15l3-3.72a2.57,2.57,0,0,1,3.62-.4l3.08,2.47a2.58,2.58,0,0,1,.4,3.62l-3,3.72a21.2,21.2,0,0,1,3.7,6.73l4.73-.52a2.58,2.58,0,0,1,2.85,2.28L229,308a2.57,2.57,0,0,1-2.28,2.84l-4.74.53a21.19,21.19,0,0,1-2.14,7.37l3.72,3h0a2.58,2.58,0,0,1,.4,3.62l-2.47,3.08a2.58,2.58,0,0,1-3.62.4l-3.72-3a21.2,21.2,0,0,1-6.73,3.7l.52,4.73a2.58,2.58,0,0,1-2.28,2.85l-3.92.43Zm-10.84-11.06.54.29a20,20,0,0,0,8,2.31l.61,0,.66,6a1.05,1.05,0,0,0,.4.73,1.09,1.09,0,0,0,.81.24l3.92-.43a1.11,1.11,0,0,0,.73-.41,1.06,1.06,0,0,0,.24-.8l-.66-6,.59-.18a19.73,19.73,0,0,0,7.25-4l.47-.4,4.67,3.74a1.08,1.08,0,0,0,1.54-.17l2.47-3.07a1.13,1.13,0,0,0,.24-.81,1.15,1.15,0,0,0-.41-.74h0l-4.67-3.74.29-.55a19.9,19.9,0,0,0,2.31-7.94l.05-.61,5.95-.66a1.11,1.11,0,0,0,1-1.21l-.43-3.92a1.11,1.11,0,0,0-1.21-1l-6,.66-.18-.59a19.73,19.73,0,0,0-4-7.25l-.4-.47,3.74-4.68a1.05,1.05,0,0,0,.24-.8,1.14,1.14,0,0,0-.4-.74l-3.08-2.46a1.09,1.09,0,0,0-1.54.17l-3.75,4.67-.54-.29a19.83,19.83,0,0,0-8-2.31l-.61,0-.66-6a1.1,1.1,0,0,0-.4-.74,1.12,1.12,0,0,0-.81-.23l-3.92.43a1.14,1.14,0,0,0-.74.4,1.12,1.12,0,0,0-.23.81l.66,5.95-.59.18a19.61,19.61,0,0,0-7.25,4l-.47.4-4.67-3.75a1.12,1.12,0,0,0-.81-.23,1.1,1.1,0,0,0-.74.4l-2.46,3.08a1.08,1.08,0,0,0,.17,1.54l4.67,3.75-.29.54a19.79,19.79,0,0,0-2.31,7.95l-.05.61-5.95.66a1.09,1.09,0,0,0-1,1.21L174,314a1.11,1.11,0,0,0,1.21,1l6-.66.17.59a19.61,19.61,0,0,0,4,7.25l.4.47L182,327.31a1.12,1.12,0,0,0-.23.81,1.05,1.05,0,0,0,.4.73l3.08,2.47a1.1,1.1,0,0,0,1.54-.17Zm10-6a11.39,11.39,0,1,1,8.92-4.27A11.37,11.37,0,0,1,200.53,320.52Zm0-21.33a10.28,10.28,0,0,0-1.1.06,9.92,9.92,0,0,0-5.12,17.61h0a9.92,9.92,0,1,0,12.41-15.49A9.82,9.82,0,0,0,200.56,299.19Z" transform="translate(8 9.21)"/></g><g class="cls-11"><rect class="cls-12" x="33.12" y="157.04" width="72.9" height="117.95" rx="2.55" transform="translate(5.38 10.07) rotate(-0.7)"/><path class="cls-13" d="M105.57,159.1l.08,6.71-72.89.88-.08-6.83a2.43,2.43,0,0,1,2.4-2.46l67.9-.83A2.57,2.57,0,0,1,105.57,159.1Z" transform="translate(8 9.21)"/><path class="cls-2" d="M37.7,163.35a1.49,1.49,0,0,1-1.51-1.48,1.5,1.5,0,1,1,1.51,1.48Zm0-2.4a.9.9,0,1,0,.91.9A.91.91,0,0,0,37.68,161Z" transform="translate(8 9.21)"/><path class="cls-2" d="M42.71,163.32a1.5,1.5,0,1,1,1.49-1.51A1.5,1.5,0,0,1,42.71,163.32Zm0-2.4a.9.9,0,1,0,.91.89A.89.89,0,0,0,42.69,160.92Z" transform="translate(8 9.21)"/><path class="cls-2" d="M47.59,163.28a1.5,1.5,0,1,1,1.48-1.51A1.51,1.51,0,0,1,47.59,163.28Zm0-2.4a.9.9,0,1,0,0,1.8.89.89,0,0,0,.89-.91A.9.9,0,0,0,47.57,160.88Z" transform="translate(8 9.21)"/><path class="cls-2" d="M72.69,177.11,39,177.36a.6.6,0,1,1,0-1.2l33.68-.25a.6.6,0,0,1,.61.59A.62.62,0,0,1,72.69,177.11Z" transform="translate(8 9.21)"/><path class="cls-13" d="M83.92,177l-7,0a.59.59,0,0,1-.61-.59.62.62,0,0,1,.6-.61l7-.05a.6.6,0,0,1,.6.6A.59.59,0,0,1,83.92,177Z" transform="translate(8 9.21)"/><path class="cls-2" d="M72.9,205.07l-33.68.26a.61.61,0,0,1-.61-.6.6.6,0,0,1,.6-.6l33.68-.26a.61.61,0,0,1,.61.6A.6.6,0,0,1,72.9,205.07Z" transform="translate(8 9.21)"/><path class="cls-14" d="M84.13,205l-7,0a.61.61,0,0,1-.61-.6.6.6,0,0,1,.6-.6l7-.05a.6.6,0,0,1,.61.59A.62.62,0,0,1,84.13,205Z" transform="translate(8 9.21)"/><path class="cls-14" d="M72.79,190.45l-33.68.26a.6.6,0,1,1,0-1.2l33.68-.26a.62.62,0,0,1,.61.6A.6.6,0,0,1,72.79,190.45Z" transform="translate(8 9.21)"/><path class="cls-2" d="M84,190.37l-7,0a.6.6,0,1,1,0-1.2l7-.05a.6.6,0,0,1,0,1.2Z" transform="translate(8 9.21)"/><path class="cls-13" d="M95.53,190.28l-7,.05a.6.6,0,0,1-.61-.59.62.62,0,0,1,.6-.61l7,0a.6.6,0,0,1,.6.6A.59.59,0,0,1,95.53,190.28Z" transform="translate(8 9.21)"/><path class="cls-13" d="M61.51,183.76l-22.46.17a.6.6,0,0,1-.6-.6.6.6,0,0,1,.6-.6l22.45-.17a.6.6,0,1,1,0,1.2Z" transform="translate(8 9.21)"/><path class="cls-15" d="M75.49,183.65l-9.85.08a.6.6,0,0,1-.6-.6.59.59,0,0,1,.59-.6l9.85-.08a.6.6,0,1,1,0,1.2Z" transform="translate(8 9.21)"/><path class="cls-13" d="M75.6,197.72l-22.46.17a.6.6,0,0,1-.6-.6.59.59,0,0,1,.59-.6l22.46-.17a.6.6,0,0,1,.61.59A.62.62,0,0,1,75.6,197.72Z" transform="translate(8 9.21)"/><path class="cls-15" d="M49,197.92l-9.85.07a.59.59,0,0,1-.6-.59.6.6,0,0,1,.59-.61l9.85-.07a.6.6,0,1,1,0,1.2Z" transform="translate(8 9.21)"/><path class="cls-15" d="M73,214.5l-33.68.25a.6.6,0,0,1-.61-.59.62.62,0,0,1,.6-.61L73,213.3a.6.6,0,1,1,0,1.2Z" transform="translate(8 9.21)"/><path class="cls-13" d="M84.2,214.41l-7,.06a.62.62,0,0,1-.61-.6.6.6,0,0,1,.6-.6l7-.06a.62.62,0,0,1,.61.6A.6.6,0,0,1,84.2,214.41Z" transform="translate(8 9.21)"/><path class="cls-2" d="M73.18,242.46l-33.68.26a.6.6,0,0,1-.6-.6.59.59,0,0,1,.59-.6l33.69-.26a.6.6,0,0,1,.6.6A.6.6,0,0,1,73.18,242.46Z" transform="translate(8 9.21)"/><path class="cls-14" d="M84.41,242.38l-7,.05a.6.6,0,0,1-.6-.6.59.59,0,0,1,.59-.6l7,0a.6.6,0,0,1,.61.59A.61.61,0,0,1,84.41,242.38Z" transform="translate(8 9.21)"/><path class="cls-14" d="M73.07,227.85l-33.68.25a.61.61,0,0,1-.61-.6.6.6,0,0,1,.6-.6l33.68-.26a.6.6,0,0,1,.61.6A.61.61,0,0,1,73.07,227.85Z" transform="translate(8 9.21)"/><path class="cls-2" d="M84.3,227.76l-7,.05a.59.59,0,0,1-.6-.59.6.6,0,0,1,.59-.61l7-.05a.61.61,0,0,1,.61.6A.6.6,0,0,1,84.3,227.76Z" transform="translate(8 9.21)"/><path class="cls-13" d="M95.81,227.67l-7,.06a.6.6,0,0,1-.6-.6.59.59,0,0,1,.59-.6l7-.06a.61.61,0,0,1,.61.6A.6.6,0,0,1,95.81,227.67Z" transform="translate(8 9.21)"/><path class="cls-13" d="M61.79,221.15l-22.45.17a.61.61,0,0,1-.61-.6.6.6,0,0,1,.6-.6L61.78,220a.6.6,0,1,1,0,1.2Z" transform="translate(8 9.21)"/><path class="cls-15" d="M75.78,221l-9.85.08a.6.6,0,1,1,0-1.2l9.85-.08a.6.6,0,0,1,.6.6A.59.59,0,0,1,75.78,221Z" transform="translate(8 9.21)"/><path class="cls-13" d="M75.88,235.11l-22.45.17a.6.6,0,1,1,0-1.2l22.45-.17a.6.6,0,0,1,.61.59A.6.6,0,0,1,75.88,235.11Z" transform="translate(8 9.21)"/><path class="cls-15" d="M49.3,235.31l-9.86.07a.59.59,0,0,1-.6-.59.61.61,0,0,1,.6-.61l9.85-.07a.6.6,0,0,1,0,1.2Z" transform="translate(8 9.21)"/><path class="cls-15" d="M73.25,251.11l-33.68.25a.59.59,0,0,1-.61-.59.61.61,0,0,1,.6-.61l33.68-.25a.61.61,0,0,1,.61.6A.6.6,0,0,1,73.25,251.11Z" transform="translate(8 9.21)"/><path class="cls-13" d="M84.48,251l-7,.06a.6.6,0,1,1,0-1.2l7-.06a.6.6,0,0,1,.6.6A.59.59,0,0,1,84.48,251Z" transform="translate(8 9.21)"/><path class="cls-2" d="M84.61,268.68l-7,.06a.61.61,0,0,1,0-1.21l7,0a.62.62,0,0,1,.61.6A.6.6,0,0,1,84.61,268.68Z" transform="translate(8 9.21)"/><path class="cls-13" d="M96.12,268.6l-7,0a.6.6,0,0,1-.6-.6.59.59,0,0,1,.59-.6l7-.06a.61.61,0,0,1,.61.6A.62.62,0,0,1,96.12,268.6Z" transform="translate(8 9.21)"/><path class="cls-13" d="M62.07,257.76l-22.45.17a.6.6,0,1,1,0-1.2l22.45-.17a.62.62,0,0,1,.61.6A.6.6,0,0,1,62.07,257.76Z" transform="translate(8 9.21)"/><path class="cls-15" d="M76.05,257.66l-9.85.07a.6.6,0,0,1,0-1.2l9.85-.07a.59.59,0,0,1,.61.59A.62.62,0,0,1,76.05,257.66Z" transform="translate(8 9.21)"/></g><polygon class="cls-16" points="102.99 126.6 103.75 129.2 103.75 125.74 102.99 126.6"/><polygon class="cls-16" points="103.82 296.55 103.82 293.09 103.06 295.69 103.82 296.55"/><path class="cls-17" d="M95.74,101.6V120l0,41.42,0,81.05,0,41.42v13.54A10.64,10.64,0,0,0,106.45,308H114l83.32,0A10.63,10.63,0,0,0,208,297.37l-.09-195.82a10.62,10.62,0,0,0-10.62-10.61l-90.9,0A10.62,10.62,0,0,0,95.74,101.6Z" transform="translate(8 9.21)"/><path class="cls-13" d="M96.52,105.31v57.86l0,78.41,0,40.08v13.1a10.29,10.29,0,0,0,6.81,9.61,10.57,10.57,0,0,0,3.67.66h7.46l82.17,0a10.51,10.51,0,0,0,5.92-1.81,10.19,10.19,0,0,0,4.55-8.47l-.08-189.44a10.18,10.18,0,0,0-3.75-7.87,10.53,10.53,0,0,0-6.73-2.4L107,95A10.37,10.37,0,0,0,96.52,105.31Z" transform="translate(8 9.21)"/><rect class="cls-2" x="109.65" y="127.47" width="100.41" height="162.46" rx="2.55"/><path class="cls-14" d="M202,120.71v10.21l-100.4,0V120.63a2.43,2.43,0,0,1,2.44-2.43l95.41,0A2.56,2.56,0,0,1,202,120.71Z" transform="translate(8 9.21)"/><path class="cls-2" d="M189.62,123.11a.37.37,0,1,1,0-.74h7.54a.37.37,0,0,1,.37.37.38.38,0,0,1-.37.37Z" transform="translate(8 9.21)"/><path class="cls-2" d="M189.62,125a.37.37,0,0,1-.37-.37.38.38,0,0,1,.37-.37h7.54a.38.38,0,0,1,.37.37.37.37,0,0,1-.37.37Z" transform="translate(8 9.21)"/><path class="cls-2" d="M189.63,127a.38.38,0,0,1-.38-.37.37.37,0,0,1,.38-.37h7.53a.38.38,0,0,1,0,.75Z" transform="translate(8 9.21)"/><path class="cls-2" d="M110.59,128.19a.36.36,0,0,1-.26-.11l-2.74-2.74a.59.59,0,0,1,0-.85l2.63-2.63a.37.37,0,0,1,.52.52l-2.53,2.54,2.64,2.63a.37.37,0,0,1,0,.53A.38.38,0,0,1,110.59,128.19Z" transform="translate(8 9.21)"/><path class="cls-2" d="M151.9,108.82a2.72,2.72,0,0,1,0-5.44h0a2.72,2.72,0,0,1,0,5.44Zm0-4.29h0a1.57,1.57,0,0,0,0,3.14h0a1.57,1.57,0,0,0,1.11-.46,1.57,1.57,0,0,0-1.11-2.68Z" transform="translate(8 9.21)"/><path class="cls-2" d="M149.32,300.27a1.75,1.75,0,0,1-1.75-1.75v-5.15a1.74,1.74,0,0,1,1.74-1.74h5.16a1.74,1.74,0,0,1,1.74,1.74v5.15a1.75,1.75,0,0,1-1.74,1.75Zm5.15-7.9h-5.16a1,1,0,0,0-1,1v5.15a1,1,0,0,0,1,1h5.15a1,1,0,0,0,1-1v-5.15A1,1,0,0,0,154.47,292.37Z" transform="translate(8 9.21)"/><path class="cls-2" d="M118.29,293.21a.38.38,0,0,1-.38-.37.37.37,0,0,1,.38-.37h4.95a.37.37,0,0,1,.38.37.38.38,0,0,1-.38.37Z" transform="translate(8 9.21)"/><path class="cls-2" d="M118.29,295.89a.37.37,0,0,1-.37-.37.36.36,0,0,1,.37-.37h5a.38.38,0,0,1,0,.75Z" transform="translate(8 9.21)"/><path class="cls-2" d="M118.29,298.6a.37.37,0,0,1-.37-.37.36.36,0,0,1,.37-.37h5a.37.37,0,0,1,.37.37.38.38,0,0,1-.37.37Z" transform="translate(8 9.21)"/><path class="cls-2" d="M186.76,300.25a.33.33,0,0,1-.26-.11l-3.9-3.89,3.79-3.8a.37.37,0,0,1,.53,0,.37.37,0,0,1,0,.52l-3.28,3.28,3.38,3.37a.37.37,0,0,1,0,.52A.34.34,0,0,1,186.76,300.25Z" transform="translate(8 9.21)"/><rect class="cls-18" x="109.78" y="140.31" width="100.26" height="32.83"/><rect class="cls-19" x="117.98" y="146.95" width="38.09" height="8.14" rx="1.05"/><rect class="cls-19" x="117.98" y="159.64" width="57.86" height="4.07" rx="1.05"/><path class="cls-19" d="M189.68,153.81a7.7,7.7,0,1,1,0-15.39h0a7.7,7.7,0,0,1,7.7,7.69h0a7.68,7.68,0,0,1-7.69,7.7Zm0-13.91h0a6.22,6.22,0,0,0,0,12.43h0a6.21,6.21,0,0,0,6.21-6.22h0a6.21,6.21,0,0,0-6.22-6.21Z" transform="translate(8 9.21)"/><rect class="cls-17" x="118.65" y="185.06" width="23.34" height="23.34" rx="3.38"/><g class="cls-20"><path class="cls-14" d="M127.36,187.63a5,5,0,1,1-5-5A5,5,0,0,1,127.36,187.63Z" transform="translate(8 9.21)"/></g><g class="cls-21"><rect class="cls-13" x="146.05" y="188.69" width="14.81" height="4.19" rx="0.84"/><path class="cls-13" d="M138.05,190.1a.75.75,0,0,1-.74-.75.74.74,0,0,1,.74-.74h25.28a.74.74,0,1,1,0,1.48l-25.28,0Z" transform="translate(8 9.21)"/><path class="cls-13" d="M138.06,195.38a.74.74,0,0,1,0-1.48l41.21,0h0a.75.75,0,0,1,0,1.49Z" transform="translate(8 9.21)"/><path class="cls-13" d="M169,190.08a.74.74,0,1,1,0-1.48h25.27a.74.74,0,1,1,0,1.48Z" transform="translate(8 9.21)"/></g><rect class="cls-14" x="118.68" y="252.95" width="23.34" height="23.34" rx="3.38"/><g class="cls-22"><path class="cls-13" d="M127.39,255.52a5,5,0,1,1-5-5A5,5,0,0,1,127.39,255.52Z" transform="translate(8 9.21)"/></g><g class="cls-21"><rect class="cls-13" x="146.08" y="256.58" width="14.81" height="4.19" rx="0.84"/><path class="cls-13" d="M138.08,258a.74.74,0,0,1,0-1.48h25.28a.74.74,0,1,1,0,1.48Z" transform="translate(8 9.21)"/><path class="cls-13" d="M138.09,263.28a.74.74,0,0,1,0-1.48l41.21,0h0a.74.74,0,1,1,0,1.48l-41.21,0Z" transform="translate(8 9.21)"/><path class="cls-13" d="M169,258a.75.75,0,0,1,0-1.49h25.28a.74.74,0,0,1,.74.74.75.75,0,0,1-.74.75Z" transform="translate(8 9.21)"/></g><rect class="cls-15" x="118.67" y="218.93" width="23.34" height="23.34" rx="3.38"/><circle class="cls-19" cx="130.33" cy="230.71" r="5.04"/><g class="cls-21"><rect class="cls-13" x="146.07" y="222.56" width="14.81" height="4.19" rx="0.84"/><path class="cls-13" d="M138.07,224a.74.74,0,0,1,0-1.48h11.69a.74.74,0,0,1,0,1.48Z" transform="translate(8 9.21)"/><path class="cls-13" d="M138.07,229.25a.74.74,0,0,1,0-1.48h24a.74.74,0,0,1,0,1.48Z" transform="translate(8 9.21)"/><path class="cls-13" d="M154.65,224a.74.74,0,0,1-.74-.74.75.75,0,0,1,.74-.75H178a.75.75,0,0,1,0,1.49Z" transform="translate(8 9.21)"/><path class="cls-13" d="M182.34,223.94a.74.74,0,0,1,0-1.48H194a.74.74,0,0,1,0,1.48Z" transform="translate(8 9.21)"/></g><rect class="cls-23" x="226.16" y="231.17" width="52.5" height="84.94" rx="2.55" transform="translate(4.69 12.3) rotate(-0.7)"/><rect class="cls-24" x="226.16" y="231.17" width="52.5" height="84.94" rx="2.55" transform="translate(4.69 12.3) rotate(-0.7)"/><path class="cls-15" d="M278.34,233.38l.05,4.11-52.49.64-.05-4.24a2.44,2.44,0,0,1,2.41-2.47l47.49-.57A2.55,2.55,0,0,1,278.34,233.38Z" transform="translate(8 9.21)"/><path class="cls-2" d="M229.46,235.72a1.07,1.07,0,0,1-1.09-1.07,1.08,1.08,0,0,1,2.16,0A1.08,1.08,0,0,1,229.46,235.72Zm0-1.73a.66.66,0,0,0-.65.66.65.65,0,1,0,.65-.66Z" transform="translate(8 9.21)"/><path class="cls-2" d="M233.07,235.7a1.09,1.09,0,1,1,1.07-1.09A1.08,1.08,0,0,1,233.07,235.7Zm0-1.73a.65.65,0,0,0-.65.65.64.64,0,0,0,.65.64.65.65,0,0,0,.65-.65A.64.64,0,0,0,233.06,234Z" transform="translate(8 9.21)"/><path class="cls-2" d="M236.58,235.67a1.08,1.08,0,0,1,0-2.16,1.07,1.07,0,0,1,1.09,1.07A1.08,1.08,0,0,1,236.58,235.67Zm0-1.73a.65.65,0,0,0,0,1.3.66.66,0,0,0,.65-.66A.65.65,0,0,0,236.57,233.94Z" transform="translate(8 9.21)"/><path class="cls-2" d="M254.66,245.63l-24.26.18a.44.44,0,1,1,0-.87l24.26-.18a.44.44,0,0,1,0,.87Z" transform="translate(8 9.21)"/><path class="cls-2" d="M262.74,245.56l-5,0a.44.44,0,0,1-.44-.43.43.43,0,0,1,.43-.43l5,0a.43.43,0,0,1,0,.86Z" transform="translate(8 9.21)"/><path class="cls-2" d="M254.81,265.76l-24.26.19a.43.43,0,0,1-.43-.43.44.44,0,0,1,.43-.44l24.25-.18a.44.44,0,0,1,.44.43A.43.43,0,0,1,254.81,265.76Z" transform="translate(8 9.21)"/><path class="cls-2" d="M262.9,265.7l-5,0a.43.43,0,0,1-.43-.43.42.42,0,0,1,.42-.43l5,0a.43.43,0,0,1,.43.43A.42.42,0,0,1,262.9,265.7Z" transform="translate(8 9.21)"/><path class="cls-2" d="M254.73,255.24l-24.26.18A.43.43,0,0,1,230,255a.42.42,0,0,1,.43-.43l24.25-.19a.44.44,0,0,1,0,.87Z" transform="translate(8 9.21)"/><path class="cls-2" d="M262.82,255.18l-5,0a.42.42,0,0,1-.43-.42.43.43,0,0,1,.42-.44l5,0a.43.43,0,0,1,.43.43A.43.43,0,0,1,262.82,255.18Z" transform="translate(8 9.21)"/><path class="cls-2" d="M271.11,255.11l-5,0a.43.43,0,0,1-.43-.43.42.42,0,0,1,.42-.43l5,0a.43.43,0,0,1,.43.43A.42.42,0,0,1,271.11,255.11Z" transform="translate(8 9.21)"/><path class="cls-2" d="M246.61,250.42l-16.17.12a.44.44,0,0,1-.44-.43.44.44,0,0,1,.43-.44l16.17-.12a.44.44,0,0,1,0,.87Z" transform="translate(8 9.21)"/><path class="cls-2" d="M256.68,250.34l-7.1,0a.42.42,0,0,1-.43-.43.43.43,0,0,1,.43-.43l7.09-.05a.43.43,0,1,1,0,.86Z" transform="translate(8 9.21)"/><path class="cls-2" d="M256.75,260.47l-16.17.12a.43.43,0,0,1-.43-.43.42.42,0,0,1,.42-.43l16.18-.13a.43.43,0,0,1,.43.43A.44.44,0,0,1,256.75,260.47Z" transform="translate(8 9.21)"/><path class="cls-2" d="M237.61,260.61l-7.1.06a.44.44,0,0,1,0-.87l7.09-.05a.44.44,0,0,1,.44.43A.43.43,0,0,1,237.61,260.61Z" transform="translate(8 9.21)"/><path class="cls-2" d="M254.86,272.55l-24.26.19a.43.43,0,0,1-.43-.43.44.44,0,0,1,.43-.44l24.25-.18a.44.44,0,0,1,.44.43A.43.43,0,0,1,254.86,272.55Z" transform="translate(8 9.21)"/><path class="cls-2" d="M263,272.49l-5,0a.43.43,0,0,1-.43-.43.42.42,0,0,1,.43-.43l5,0a.44.44,0,0,1,.44.43A.43.43,0,0,1,263,272.49Z" transform="translate(8 9.21)"/><path class="cls-2" d="M255,292.69l-24.25.19a.44.44,0,1,1,0-.87l24.26-.18a.43.43,0,0,1,0,.86Z" transform="translate(8 9.21)"/><path class="cls-2" d="M263.1,292.63l-5,0a.43.43,0,0,1-.43-.43.44.44,0,0,1,.43-.44l5,0a.43.43,0,1,1,0,.86Z" transform="translate(8 9.21)"/><path class="cls-2" d="M254.93,282.17l-24.25.18a.44.44,0,0,1-.44-.43.44.44,0,0,1,.43-.44l24.26-.18a.43.43,0,0,1,.43.43A.44.44,0,0,1,254.93,282.17Z" transform="translate(8 9.21)"/><path class="cls-2" d="M263,282.1l-5,0a.43.43,0,0,1-.43-.43.43.43,0,0,1,.43-.43l5,0a.44.44,0,0,1,.44.43A.43.43,0,0,1,263,282.1Z" transform="translate(8 9.21)"/><path class="cls-2" d="M271.31,282l-5,0a.43.43,0,0,1-.43-.43.44.44,0,0,1,.43-.44l5,0a.43.43,0,1,1,0,.86Z" transform="translate(8 9.21)"/><path class="cls-2" d="M246.81,277.34l-16.17.13a.44.44,0,0,1-.44-.43.44.44,0,0,1,.43-.44l16.17-.12a.44.44,0,0,1,.44.43A.43.43,0,0,1,246.81,277.34Z" transform="translate(8 9.21)"/><path class="cls-2" d="M256.88,277.27l-7.09.05a.44.44,0,0,1-.44-.43.43.43,0,0,1,.43-.43l7.09-.06a.44.44,0,0,1,0,.87Z" transform="translate(8 9.21)"/><path class="cls-2" d="M257,287.4l-16.18.12a.43.43,0,0,1-.43-.43.44.44,0,0,1,.43-.44l16.17-.12a.44.44,0,0,1,0,.87Z" transform="translate(8 9.21)"/><path class="cls-2" d="M237.81,287.54l-7.09,0a.43.43,0,0,1-.44-.42.44.44,0,0,1,.43-.44l7.09-.05a.43.43,0,1,1,0,.86Z" transform="translate(8 9.21)"/><path class="cls-2" d="M255.06,298.92l-24.26.18a.43.43,0,0,1,0-.86l24.25-.19a.44.44,0,0,1,0,.87Z" transform="translate(8 9.21)"/><path class="cls-2" d="M263.15,298.86l-5,0a.44.44,0,0,1,0-.87l5,0a.44.44,0,0,1,.44.43A.44.44,0,0,1,263.15,298.86Z" transform="translate(8 9.21)"/><path class="cls-2" d="M263.24,311.57l-5,0a.44.44,0,0,1-.44-.43.43.43,0,0,1,.43-.43l5,0a.43.43,0,0,1,.43.43A.43.43,0,0,1,263.24,311.57Z" transform="translate(8 9.21)"/><path class="cls-2" d="M271.53,311.51l-5,0a.44.44,0,0,1-.44-.43.44.44,0,0,1,.43-.44l5,0a.43.43,0,0,1,.43.43A.43.43,0,0,1,271.53,311.51Z" transform="translate(8 9.21)"/><path class="cls-2" d="M247,303.71l-16.17.12a.44.44,0,0,1-.44-.43.43.43,0,0,1,.43-.43l16.17-.12a.43.43,0,0,1,.44.42A.44.44,0,0,1,247,303.71Z" transform="translate(8 9.21)"/><path class="cls-2" d="M257.08,303.63l-7.09.06a.44.44,0,1,1,0-.87l7.09-.05a.44.44,0,0,1,.44.43A.43.43,0,0,1,257.08,303.63Z" transform="translate(8 9.21)"/><rect class="cls-25" x="231.26" y="109.41" width="62.17" height="100.59" rx="2.55" transform="translate(6.38 11.9) rotate(-0.59)"/><rect class="cls-2" x="227.86" y="104.99" width="62.17" height="100.59" rx="2.55" transform="translate(6.43 11.87) rotate(-0.59)"/><path class="cls-14" d="M289.75,107.18l.06,5.34-62.17.64,0-5.47a2.43,2.43,0,0,1,2.41-2.46l57.16-.58A2.55,2.55,0,0,1,289.75,107.18Z" transform="translate(8 9.21)"/><path class="cls-2" d="M282.08,107.91a.38.38,0,0,1-.37-.37.37.37,0,0,1,.37-.37l4.66,0a.37.37,0,0,1,0,.74l-4.67,0Z" transform="translate(8 9.21)"/><path class="cls-2" d="M282.09,109.1a.37.37,0,1,1,0-.74l4.66,0a.42.42,0,0,1,.38.37.38.38,0,0,1-.37.37l-4.66,0Z" transform="translate(8 9.21)"/><path class="cls-2" d="M282.1,110.29a.37.37,0,0,1,0-.74l4.66,0h0a.38.38,0,0,1,.37.37.37.37,0,0,1-.37.37l-4.66.05Z" transform="translate(8 9.21)"/><path class="cls-2" d="M233.18,111.53a.36.36,0,0,1-.26-.11l-1.71-1.67a.52.52,0,0,1,0-.73l1.61-1.65a.37.37,0,0,1,.53.52l-1.45,1.48,1.55,1.52a.38.38,0,0,1-.26.64Z" transform="translate(8 9.21)"/><path class="cls-18" d="M287.87,205.45l-57.27.33a2.52,2.52,0,0,1-2.52-2.49L228,183.44l62.27-.35.11,19.85A2.49,2.49,0,0,1,287.87,205.45Z" transform="translate(8 9.21)"/><rect class="cls-17" x="245.44" y="122.38" width="26.67" height="4.4" rx="0.83" transform="translate(7.3 10.67) rotate(-0.32)"/><rect class="cls-26" x="234.98" y="136.85" width="47.78" height="7.87" rx="3.51" transform="translate(7.21 10.67) rotate(-0.32)"/><path class="cls-19" d="M241.52,140.92a2.43,2.43,0,1,1-2.44-2.41A2.42,2.42,0,0,1,241.52,140.92Z" transform="translate(8 9.21)"/><path class="cls-2" d="M240,140.23a.87.87,0,1,1-1.74,0,.87.87,0,1,1,1.74,0Z" transform="translate(8 9.21)"/><path class="cls-2" d="M240.4,142.49h-2.59v-.32a1.35,1.35,0,0,1,1.35-1.36h0A1.23,1.23,0,0,1,240.4,142Z" transform="translate(8 9.21)"/><rect class="cls-26" x="235.05" y="149.68" width="47.78" height="7.87" rx="3.51" transform="translate(7.14 10.67) rotate(-0.32)"/><path class="cls-19" d="M241.59,153.75a2.43,2.43,0,1,1-2.44-2.41A2.42,2.42,0,0,1,241.59,153.75Z" transform="translate(8 9.21)"/><rect class="cls-2" x="238.12" y="153.36" width="2.11" height="1.93" rx="0.24" transform="translate(7.14 10.55) rotate(-0.32)"/><path class="cls-2" d="M238.32,153.54v-.6a.52.52,0,0,1,.17-.42.55.55,0,0,1,.41-.18h.56a.51.51,0,0,1,.37.15.55.55,0,0,1,.16.38v.66h-.18v-.66a.34.34,0,0,0-.34-.35h-.55a.38.38,0,0,0-.29.12.4.4,0,0,0-.12.29v.6Z" transform="translate(8 9.21)"/><path class="cls-15" d="M268.62,171.77l-17.59.1a3.85,3.85,0,0,1-3.87-3.83h0a3.85,3.85,0,0,1,3.83-3.88l17.58-.1a3.86,3.86,0,0,1,3.88,3.84h0A3.85,3.85,0,0,1,268.62,171.77Z" transform="translate(8 9.21)"/><path class="cls-2" d="M242.13,191.63a.74.74,0,0,1-.74-.74.75.75,0,0,1,.74-.75l34-.19h0a.75.75,0,0,1,.74.74.74.74,0,0,1-.74.74l-34,.2Z" transform="translate(8 9.21)"/><path class="cls-2" d="M249.06,196.74a.73.73,0,0,1-.74-.73.75.75,0,0,1,.74-.75l20.23-.11h0a.74.74,0,1,1,0,1.48l-20.24.11Z" transform="translate(8 9.21)"/><rect class="cls-25" x="187.8" y="174.24" width="62.17" height="100.59" rx="2.55" transform="translate(5.72 11.46) rotate(-0.59)"/><rect class="cls-2" x="184.4" y="169.82" width="62.17" height="100.59" rx="2.55" transform="translate(5.76 11.42) rotate(-0.59)"/><rect class="cls-27" x="184.4" y="169.82" width="62.17" height="100.59" rx="2.55" transform="translate(5.76 11.42) rotate(-0.59)"/><path class="cls-14" d="M246.28,172l.06,5.34-62.17.64,0-5.47a2.43,2.43,0,0,1,2.41-2.46l57.17-.58A2.55,2.55,0,0,1,246.28,172Z" transform="translate(8 9.21)"/><path class="cls-2" d="M238.61,172.74a.38.38,0,0,1-.37-.37.37.37,0,0,1,.37-.37l4.66-.05a.41.41,0,0,1,.38.37.38.38,0,0,1-.37.37l-4.66.05Z" transform="translate(8 9.21)"/><path class="cls-2" d="M238.63,173.93a.37.37,0,1,1,0-.74l4.66-.05h0a.37.37,0,0,1,0,.74l-4.66.05Z" transform="translate(8 9.21)"/><path class="cls-2" d="M238.64,175.12a.37.37,0,0,1,0-.74l4.67,0h0a.37.37,0,0,1,0,.74l-4.66.05Z" transform="translate(8 9.21)"/><path class="cls-2" d="M189.71,176.36a.38.38,0,0,1-.26-.11l-1.71-1.67a.52.52,0,0,1,0-.73l1.61-1.65a.38.38,0,0,1,.53,0,.37.37,0,0,1,0,.52l-1.45,1.48,1.55,1.52a.38.38,0,0,1,0,.53A.4.4,0,0,1,189.71,176.36Z" transform="translate(8 9.21)"/><g class="cls-20"><path class="cls-2" d="M244.4,270.28l-57.27.32a2.49,2.49,0,0,1-2.51-2.48l-.12-19.85,62.27-.35.12,19.85A2.51,2.51,0,0,1,244.4,270.28Z" transform="translate(8 9.21)"/><path class="cls-2" d="M187.12,271a2.88,2.88,0,0,1-2-.83,2.82,2.82,0,0,1-.85-2l-.12-20.22,63-.35.12,20.21a2.88,2.88,0,0,1-2.86,2.89l-57.27.33Zm-2.24-22.34.11,19.48a2.12,2.12,0,0,0,2.13,2.11h0l57.27-.32a2.14,2.14,0,0,0,2.12-2.14l-.11-19.48Z" transform="translate(8 9.21)"/></g><rect class="cls-2" x="213.56" y="165.12" width="7.37" height="47.78" rx="1.45" transform="translate(35.97 415.24) rotate(-89.93)"/><path class="cls-2" d="M239.9,198.43l-45.34-.05a1.21,1.21,0,0,1-1.21-1.22h0a1.21,1.21,0,0,1,1.22-1.22l45.34.05a1.23,1.23,0,0,1,1.22,1.23h0A1.21,1.21,0,0,1,239.9,198.43Z" transform="translate(8 9.21)"/><path class="cls-2" d="M239.9,204.07,194.56,204a1.22,1.22,0,0,1-1.22-1.22h0a1.22,1.22,0,0,1,1.22-1.22l45.34.05a1.22,1.22,0,0,1,1.22,1.23h0A1.22,1.22,0,0,1,239.9,204.07Z" transform="translate(8 9.21)"/><path class="cls-15" d="M199.47,212.32a3.07,3.07,0,1,1-3.07-3.08A3.07,3.07,0,0,1,199.47,212.32Z" transform="translate(8 9.21)"/><path class="cls-15" d="M199.46,226.26a3.08,3.08,0,1,1-3.07-3.08A3.09,3.09,0,0,1,199.46,226.26Z" transform="translate(8 9.21)"/><path class="cls-15" d="M199.44,239.78a3.08,3.08,0,1,1-3.07-3.08A3.07,3.07,0,0,1,199.44,239.78Z" transform="translate(8 9.21)"/><path class="cls-2" d="M230.63,211.23h0l-29.41,0a.36.36,0,0,1-.37-.37.37.37,0,0,1,.37-.37h0l29.41,0a.37.37,0,0,1,0,.74Z" transform="translate(8 9.21)"/><path class="cls-2" d="M215.92,214.34h0l-14.71,0a.37.37,0,0,1-.37-.37.38.38,0,0,1,.37-.37h0l14.71,0a.37.37,0,0,1,0,.74Z" transform="translate(8 9.21)"/><path class="cls-2" d="M230.61,225.62h0l-29.41,0a.36.36,0,0,1-.37-.37.38.38,0,0,1,.37-.37h0l29.41,0a.38.38,0,0,1,.37.37A.37.37,0,0,1,230.61,225.62Z" transform="translate(8 9.21)"/><path class="cls-2" d="M215.9,228.73h0l-14.7,0a.36.36,0,0,1-.37-.37.37.37,0,0,1,.37-.37h0l14.7,0a.37.37,0,1,1,0,.74Z" transform="translate(8 9.21)"/><path class="cls-2" d="M230.59,238.76h0l-29.41,0a.38.38,0,0,1,0-.75h0l29.41,0a.37.37,0,0,1,.37.37A.36.36,0,0,1,230.59,238.76Z" transform="translate(8 9.21)"/><path class="cls-2" d="M215.88,241.87h0l-14.7,0a.36.36,0,0,1-.37-.37.38.38,0,0,1,.37-.37h0l14.71,0a.38.38,0,0,1,.37.37A.37.37,0,0,1,215.88,241.87Z" transform="translate(8 9.21)"/><path class="cls-2" d="M198.67,256.46a.75.75,0,1,1,0-1.49l34-.19h0a.74.74,0,0,1,0,1.48l-34,.2Z" transform="translate(8 9.21)"/><path class="cls-2" d="M205.59,261.57a.74.74,0,1,1,0-1.48l20.23-.11h0a.74.74,0,0,1,.74.73.75.75,0,0,1-.74.75l-20.23.11Z" transform="translate(8 9.21)"/><rect class="cls-14" x="68.46" y="147.5" width="55.52" height="17.83" rx="1.19"/><path class="cls-15" d="M69.79,152.61a5.75,5.75,0,1,1,5.74-5.75A5.76,5.76,0,0,1,69.79,152.61Z" transform="translate(8 9.21)"/><path class="cls-2" d="M69.28,149l-2.14-3a.56.56,0,0,1,.12-.79.6.6,0,0,1,.43-.1.53.53,0,0,1,.37.23l1.36,1.89,6.83-6.83a.56.56,0,0,1,.4-.17h0a.56.56,0,0,1,.4.17.57.57,0,0,1,0,.8Z" transform="translate(8 9.21)"/><line class="cls-2" x1="88.39" y1="153.47" x2="116.8" y2="153.47"/><path class="cls-28" d="M108.8,144.63H80.39a.38.38,0,0,1-.37-.37.37.37,0,0,1,.37-.37H108.8a.36.36,0,0,1,.37.37A.37.37,0,0,1,108.8,144.63Z" transform="translate(8 9.21)"/><line class="cls-2" x1="88.39" y1="156.84" x2="101.09" y2="156.84"/><path class="cls-28" d="M93.09,148H80.39a.38.38,0,0,1-.37-.37.37.37,0,0,1,.37-.37h12.7a.37.37,0,0,1,.37.37A.38.38,0,0,1,93.09,148Z" transform="translate(8 9.21)"/><line class="cls-2" x1="104.11" y1="156.84" x2="116.8" y2="156.84"/><path class="cls-28" d="M108.8,148H96.11a.37.37,0,0,1-.37-.37.36.36,0,0,1,.37-.37H108.8a.36.36,0,0,1,.37.37A.37.37,0,0,1,108.8,148Z" transform="translate(8 9.21)"/><line class="cls-2" x1="88.39" y1="160.37" x2="116.8" y2="160.37"/><path class="cls-28" d="M108.8,151.52H80.39a.37.37,0,0,1-.37-.37.38.38,0,0,1,.37-.37H108.8a.37.37,0,0,1,.37.37A.36.36,0,0,1,108.8,151.52Z" transform="translate(8 9.21)"/><rect class="cls-14" x="271.67" y="229.44" width="55.52" height="17.83" rx="1.19"/><path class="cls-15" d="M273,234.54a5.74,5.74,0,1,1,5.74-5.74A5.74,5.74,0,0,1,273,234.54Z" transform="translate(8 9.21)"/><path class="cls-2" d="M272.5,231l-2.15-3a.57.57,0,0,1-.1-.42.61.61,0,0,1,.23-.37.56.56,0,0,1,.79.13l1.37,1.89,6.83-6.83a.57.57,0,0,1,.8.8Zm-1.83-3.2Z" transform="translate(8 9.21)"/><line class="cls-2" x1="291.61" y1="235.41" x2="320.02" y2="235.41"/><path class="cls-28" d="M312,226.57H283.61a.37.37,0,0,1-.37-.37.36.36,0,0,1,.37-.37H312a.37.37,0,0,1,.37.37A.38.38,0,0,1,312,226.57Z" transform="translate(8 9.21)"/><line class="cls-2" x1="291.61" y1="238.78" x2="304.3" y2="238.78"/><path class="cls-28" d="M296.3,229.94H283.61a.37.37,0,0,1-.37-.37.36.36,0,0,1,.37-.37H296.3a.36.36,0,0,1,.37.37A.37.37,0,0,1,296.3,229.94Z" transform="translate(8 9.21)"/><line class="cls-2" x1="307.32" y1="238.78" x2="320.02" y2="238.78"/><path class="cls-28" d="M312,229.94h-12.7a.38.38,0,0,1-.37-.37.37.37,0,0,1,.37-.37H312a.37.37,0,0,1,.37.37A.38.38,0,0,1,312,229.94Z" transform="translate(8 9.21)"/><line class="cls-2" x1="291.61" y1="242.3" x2="320.02" y2="242.3"/><path class="cls-28" d="M312,233.46H283.61a.36.36,0,0,1-.37-.37.37.37,0,0,1,.37-.37H312a.38.38,0,0,1,.37.37A.37.37,0,0,1,312,233.46Z" transform="translate(8 9.21)"/></svg>