<svg height="512pt" viewBox="-107 0 512 512" width="512pt" xmlns="http://www.w3.org/2000/svg"><path d="m297.601562 23.300781v465.394531c0 12.863282-10.425781 23.304688-23.300781 23.304688h-251c-12.875 0-23.300781-10.441406-23.300781-23.304688v-465.394531c0-12.863281 10.429688-23.300781 23.300781-23.300781h251c12.875 0 23.300781 10.4375 23.300781 23.300781zm0 0" fill="#43a3f9"/><path d="m297.601562 23.304688v465.390624c0 12.867188-10.425781 23.304688-23.304687 23.304688h-38.695313c12.878907 0 23.304688-10.4375 23.304688-23.304688v-465.390624c0-12.867188-18.667969-23.304688-31.542969-23.304688h46.933594c12.878906 0 23.304687 10.4375 23.304687 23.304688zm0 0" fill="#1685fb"/><path d="m297.601562 23.304688v38.023437h-297.59765575v-38.023437c0-12.867188 10.42187475-23.304688 23.30078175-23.304688h250.992187c12.878906 0 23.304687 10.4375 23.304687 23.304688zm0 0" fill="#e3f4ff"/><path d="m297.601562 23.304688v38.023437h-38.695312v-38.023437c0-12.867188-18.667969-23.304688-31.542969-23.304688h46.933594c12.878906 0 23.304687 10.4375 23.304687 23.304688zm0 0" fill="#bddff4"/><path d="m297.601562 451.394531v37.300781c0 12.867188-10.425781 23.304688-23.304687 23.304688h-250.992187c-12.878907 0-23.304688-10.4375-23.304688-23.304688v-37.300781zm0 0" fill="#e3f4ff"/><path d="m258.90625 451.394531h38.695312v37.300781c0 12.867188-10.425781 23.304688-23.304687 23.304688h-38.691406c12.875 0 23.300781-10.4375 23.300781-23.304688zm0 0" fill="#bddff4"/><path d="m149.316406 38.390625h-39.148437c-4.265625 0-7.726563-3.460937-7.726563-7.726563 0-4.269531 3.460938-7.726562 7.726563-7.726562h39.148437c4.265625 0 7.726563 3.457031 7.726563 7.726562 0 4.265626-3.460938 7.726563-7.726563 7.726563zm0 0" fill="#93c0d1"/><path d="m187.433594 38.390625h-5.152344c-4.265625 0-7.726562-3.460937-7.726562-7.726563 0-4.269531 3.460937-7.726562 7.726562-7.726562h5.152344c4.265625 0 7.726562 3.457031 7.726562 7.726562 0 4.265626-3.460937 7.726563-7.726562 7.726563zm0 0" fill="#93c0d1"/><path d="m123.671875 178.011719h-61.617187c-5.050782 0-9.144532-4.097657-9.144532-9.144531v-61.617188c0-5.050781 4.097656-9.144531 9.144532-9.144531h61.617187c5.050781 0 9.144531 4.09375 9.144531 9.144531v61.617188c0 5.050781-4.09375 9.144531-9.144531 9.144531zm0 0" fill="#4e7693"/><path d="m132.816406 122.015625h-79.90625v-14.765625c0-5.050781 4.097656-9.144531 9.144532-9.144531h61.617187c5.050781 0 9.144531 4.09375 9.144531 9.144531zm0 0" fill="#e3f4ff"/><path d="m235.546875 178.011719h-61.617187c-5.050782 0-9.144532-4.097657-9.144532-9.144531v-61.617188c0-5.050781 4.09375-9.144531 9.144532-9.144531h61.617187c5.050781 0 9.144531 4.09375 9.144531 9.144531v61.617188c0 5.050781-4.09375 9.144531-9.144531 9.144531zm0 0" fill="#27e6fc"/><path d="m244.691406 122.015625h-79.90625v-14.765625c0-5.050781 4.09375-9.144531 9.144532-9.144531h61.617187c5.050781 0 9.144531 4.09375 9.144531 9.144531zm0 0" fill="#e3f4ff"/><path d="m123.671875 295.953125h-61.617187c-5.050782 0-9.144532-4.09375-9.144532-9.144531v-61.617188c0-5.050781 4.097656-9.144531 9.144532-9.144531h61.617187c5.050781 0 9.144531 4.09375 9.144531 9.144531v61.617188c0 5.050781-4.09375 9.144531-9.144531 9.144531zm0 0" fill="#32dfb7"/><path d="m132.816406 239.957031h-79.90625v-14.765625c0-5.050781 4.097656-9.144531 9.144532-9.144531h61.617187c5.050781 0 9.144531 4.09375 9.144531 9.144531zm0 0" fill="#e3f4ff"/><path d="m235.546875 295.953125h-61.617187c-5.050782 0-9.144532-4.09375-9.144532-9.144531v-61.617188c0-5.050781 4.09375-9.144531 9.144532-9.144531h61.617187c5.050781 0 9.144531 4.09375 9.144531 9.144531v61.617188c0 5.050781-4.09375 9.144531-9.144531 9.144531zm0 0" fill="#fd6096"/><path d="m244.691406 239.957031h-79.90625v-14.765625c0-5.050781 4.09375-9.144531 9.144532-9.144531h61.617187c5.050781 0 9.144531 4.09375 9.144531 9.144531zm0 0" fill="#e3f4ff"/><path d="m123.671875 413.894531h-61.617187c-5.050782 0-9.144532-4.09375-9.144532-9.144531v-61.617188c0-5.050781 4.097656-9.144531 9.144532-9.144531h61.617187c5.050781 0 9.144531 4.097657 9.144531 9.144531v61.617188c0 5.050781-4.09375 9.144531-9.144531 9.144531zm0 0" fill="#f01054"/><path d="m132.816406 357.898438h-79.90625v-14.765626c0-5.050781 4.097656-9.144531 9.144532-9.144531h61.617187c5.050781 0 9.144531 4.097657 9.144531 9.144531zm0 0" fill="#e3f4ff"/><path d="m235.546875 413.894531h-61.617187c-5.050782 0-9.144532-4.09375-9.144532-9.144531v-61.617188c0-5.050781 4.09375-9.144531 9.144532-9.144531h61.617187c5.050781 0 9.144531 4.097657 9.144531 9.144531v61.617188c0 5.050781-4.09375 9.144531-9.144531 9.144531zm0 0" fill="#fdb659"/><path d="m244.691406 357.898438h-79.90625v-14.765626c0-5.050781 4.09375-9.144531 9.144532-9.144531h61.617187c5.050781 0 9.144531 4.097657 9.144531 9.144531zm0 0" fill="#e3f4ff"/></svg>