<svg xmlns="http://www.w3.org/2000/svg" xmlns:xlink="http://www.w3.org/1999/xlink" viewBox="0 0 364.6 424.11"><defs><style>.cls-1{isolation:isolate;}.cls-2{opacity:0.73;}.cls-3,.cls-9{fill:#fff;}.cls-4{opacity:0.69;}.cls-5{opacity:0.55;}.cls-6{opacity:0.38;}.cls-7{fill:url(#Dégradé_sans_nom_19);}.cls-8{fill:#e2e5e9;}.cls-14,.cls-15,.cls-16,.cls-9{stroke:#bec7d2;}.cls-12,.cls-14,.cls-15,.cls-18,.cls-24,.cls-27,.cls-30,.cls-32,.cls-34,.cls-9{stroke-miterlimit:10;}.cls-12,.cls-14,.cls-15,.cls-16,.cls-17,.cls-24,.cls-9{stroke-width:0.82px;}.cls-10{fill:#bec7d2;}.cls-11{fill:#164159;}.cls-12,.cls-14,.cls-15,.cls-16,.cls-17,.cls-18,.cls-24,.cls-27,.cls-30,.cls-32,.cls-34{fill:none;}.cls-12,.cls-17,.cls-18,.cls-24{stroke:#164159;}.cls-12,.cls-15,.cls-16,.cls-17{stroke-linecap:round;}.cls-13{fill:#f2f2f3;}.cls-16,.cls-17{stroke-linejoin:round;}.cls-18{stroke-width:0.61px;}.cls-19{fill:#fae54d;}.cls-20{fill:#467abd;}.cls-21{fill:#c955a0;}.cls-22{fill:#574da0;}.cls-23{fill:#ada6d2;}.cls-25{opacity:0.2;mix-blend-mode:multiply;}.cls-26{fill:#010101;}.cls-27{stroke:#f2f2f3;}.cls-27,.cls-30,.cls-32,.cls-34{stroke-width:0.41px;}.cls-28{fill:#2f4c63;}.cls-29{fill:#5983c3;}.cls-30{stroke:#010101;}.cls-31{fill:#7267ae;}.cls-32{stroke:#574da0;}.cls-33{fill:#6b8dc8;}.cls-34{stroke:#467abd;}</style><linearGradient id="Dégradé_sans_nom_19" x1="8.62" y1="342.68" x2="320.62" y2="108.02" gradientUnits="userSpaceOnUse"><stop offset="0" stop-color="#3d1c55"/><stop offset="0.63" stop-color="#693c86"/><stop offset="1" stop-color="#7e4b9e"/></linearGradient></defs><title>web_apps</title><g class="cls-1"><g id="Calque_1" data-name="Calque 1"><g class="cls-2"><path class="cls-3" d="M69.48,165a4.5,4.5,0,0,1-1.2-.16L61.41,163a4.55,4.55,0,0,1-3.18-5.58L60.52,149a38,38,0,0,1-11.05-8.57l-7.55,4.31a4.56,4.56,0,0,1-6.2-1.7l-3.53-6.18a4.55,4.55,0,0,1,1.7-6.2l7.55-4.3a38.24,38.24,0,0,1-1.75-13.89l-8.39-2.29a4.55,4.55,0,0,1-3.18-5.58L30,97.73a4.55,4.55,0,0,1,5.58-3.18L44,96.85a38.2,38.2,0,0,1,8.58-11.06l-4.31-7.55a4.56,4.56,0,0,1,1.7-6.2l6.18-3.52a4.55,4.55,0,0,1,6.2,1.69l4.3,7.55A38.44,38.44,0,0,1,80.49,76l2.3-8.38a4.55,4.55,0,0,1,5.58-3.19l6.87,1.88a4.55,4.55,0,0,1,3.18,5.58l-2.3,8.39a38.3,38.3,0,0,1,11.06,8.57l7.55-4.3a4.48,4.48,0,0,1,3.45-.44,4.56,4.56,0,0,1,2.75,2.13l3.52,6.18a4.54,4.54,0,0,1-1.69,6.2l-7.55,4.31A38.38,38.38,0,0,1,117,116.82l8.38,2.29a4.55,4.55,0,0,1,3.19,5.58l-1.88,6.87a4.55,4.55,0,0,1-5.58,3.18l-8.39-2.29a38.3,38.3,0,0,1-8.57,11.05l4.3,7.55a4.54,4.54,0,0,1-1.69,6.2l-6.19,3.52a4.45,4.45,0,0,1-3.44.44,4.53,4.53,0,0,1-2.75-2.13L90,151.53a38.16,38.16,0,0,1-13.88,1.75l-2.29,8.39A4.55,4.55,0,0,1,69.48,165ZM50,137.3l.66.78a35.92,35.92,0,0,0,11.83,9.17l.92.45L60.59,158a2.1,2.1,0,0,0,1.47,2.57l6.86,1.87A2.09,2.09,0,0,0,71.49,161l2.83-10.34,1,.08a35.73,35.73,0,0,0,14.86-1.87l1-.33,5.31,9.3a2.08,2.08,0,0,0,1.26,1,2.14,2.14,0,0,0,1.59-.2l6.18-3.53a2.09,2.09,0,0,0,.78-2.85L101,143l.78-.66a35.75,35.75,0,0,0,9.18-11.84l.44-.91,10.34,2.83a2.1,2.1,0,0,0,2.57-1.47l1.88-6.87a2,2,0,0,0-.2-1.58,2.06,2.06,0,0,0-1.26-1l-10.34-2.83.08-1a35.73,35.73,0,0,0-1.87-14.86l-.34-1,9.31-5.31a2.09,2.09,0,0,0,.78-2.85l-3.52-6.18a2.08,2.08,0,0,0-2.86-.78L106.63,92l-.65-.78A35.85,35.85,0,0,0,94.14,82l-.92-.45,2.83-10.34a2,2,0,0,0-.2-1.58,2,2,0,0,0-1.26-1l-6.87-1.88a2.09,2.09,0,0,0-2.57,1.46L82.32,78.61l-1-.08A35.71,35.71,0,0,0,66.45,80.4l-1,.34-5.31-9.31a2,2,0,0,0-1.27-1,2,2,0,0,0-1.58.2l-6.19,3.52A2.1,2.1,0,0,0,50.36,77l5.31,9.3-.78.66a35.85,35.85,0,0,0-9.17,11.84l-.45.92L34.93,96.92a2.09,2.09,0,0,0-2.57,1.46l-1.87,6.87a2,2,0,0,0,.2,1.58,2,2,0,0,0,1.26,1l10.34,2.83-.09,1a35.9,35.9,0,0,0,1.88,14.86l.33,1-9.31,5.31a2.09,2.09,0,0,0-.78,2.85l3.53,6.19a2.09,2.09,0,0,0,2.85.78Zm28.35-2.17a20.66,20.66,0,0,1-5.44-.73h0a20.4,20.4,0,1,1,5.44.73Zm-.07-38.52a18.09,18.09,0,1,0,4.79.65A18.24,18.24,0,0,0,78.29,96.61Z" transform="translate(8 9.21)"/></g><g class="cls-4"><path class="cls-3" d="M268.24,142.89l-46.24.84a2.22,2.22,0,0,1-2.46-1.88l-.56-30.7a2.23,2.23,0,0,1,2.39-2l46.24-.84a2.22,2.22,0,0,1,2.46,1.89l.56,30.7A2.22,2.22,0,0,1,268.24,142.89Zm-46.86-33.14c-1,0-1.84.64-1.83,1.38l.56,30.71c0,.75.86,1.34,1.88,1.32l46.24-.84c1,0,1.84-.64,1.82-1.39l-.56-30.7c0-.75-.85-1.34-1.87-1.32Z" transform="translate(8 9.21)"/><rect class="cls-3" x="219.35" y="115.01" width="50.22" height="0.57" transform="translate(5.95 13.67) rotate(-1.04)"/><path class="cls-3" d="M223,113.92a1.08,1.08,0,1,1,1.07-1.1A1.08,1.08,0,0,1,223,113.92Zm0-1.59a.51.51,0,0,0-.5.52.5.5,0,0,0,.51.5.51.51,0,0,0,.5-.52A.5.5,0,0,0,222.94,112.33Z" transform="translate(8 9.21)"/><path class="cls-3" d="M225.94,113.87a1.08,1.08,0,1,1,1.07-1.1A1.09,1.09,0,0,1,225.94,113.87Zm0-1.59a.51.51,0,0,0-.5.52.51.51,0,0,0,1,0A.5.5,0,0,0,225.92,112.28Z" transform="translate(8 9.21)"/><path class="cls-3" d="M228.87,113.81a1.08,1.08,0,1,1,0-2.16,1.08,1.08,0,0,1,0,2.16Zm0-1.58a.5.5,0,0,0-.5.51.51.51,0,0,0,.52.5.5.5,0,0,0,.49-.52A.49.49,0,0,0,228.84,112.23Z" transform="translate(8 9.21)"/></g><g class="cls-4"><path class="cls-3" d="M113,326.42l-46.25.84a2.22,2.22,0,0,1-2.45-1.89l-.56-30.7a2.22,2.22,0,0,1,2.39-2l46.24-.84a2.22,2.22,0,0,1,2.46,1.88l.55,30.7A2.22,2.22,0,0,1,113,326.42ZM66.18,293.27c-1,0-1.84.64-1.83,1.39l.56,30.7c0,.75.85,1.34,1.87,1.32l46.25-.84c1,0,1.83-.64,1.82-1.38l-.56-30.71c0-.75-.85-1.34-1.87-1.32Z" transform="translate(8 9.21)"/><rect class="cls-3" x="64.15" y="298.54" width="50.22" height="0.57" transform="translate(2.59 10.88) rotate(-1.04)"/><path class="cls-3" d="M67.76,297.44a1.08,1.08,0,0,1-1.1-1.06,1.08,1.08,0,1,1,2.16,0A1.07,1.07,0,0,1,67.76,297.44Zm0-1.58a.49.49,0,0,0-.49.51.5.5,0,0,0,.51.5.51.51,0,0,0,.5-.52A.5.5,0,0,0,67.73,295.86Z" transform="translate(8 9.21)"/><path class="cls-3" d="M70.74,297.39a1.08,1.08,0,1,1,1.06-1.1A1.08,1.08,0,0,1,70.74,297.39Zm0-1.59a.51.51,0,0,0,0,1,.51.51,0,1,0,0-1Z" transform="translate(8 9.21)"/><path class="cls-3" d="M73.67,297.34a1.08,1.08,0,0,1-1.1-1.06,1.08,1.08,0,1,1,2.16,0A1.09,1.09,0,0,1,73.67,297.34Zm0-1.59a.51.51,0,0,0-.5.52.5.5,0,0,0,.52.49.49.49,0,0,0,.49-.51A.5.5,0,0,0,73.64,295.75Z" transform="translate(8 9.21)"/></g><g class="cls-5"><path class="cls-3" d="M305.18,239.54l-4.78-3.83a23.54,23.54,0,0,0,2.73-9.4l6.09-.67a2.09,2.09,0,0,0,1.86-2.31l-.49-4.48a2.1,2.1,0,0,0-2.32-1.85l-6.09.67a23.73,23.73,0,0,0-4.71-8.58l3.83-4.78a2.11,2.11,0,0,0-.32-2.95l-3.51-2.81a2.1,2.1,0,0,0-3,.32l-3.84,4.79a23.51,23.51,0,0,0-9.4-2.74l-.67-6.09A2.1,2.1,0,0,0,278.3,193l-4.47.5a2.1,2.1,0,0,0-1.86,2.31l.67,6.09a23.48,23.48,0,0,0-8.57,4.72l-4.79-3.84a2.09,2.09,0,0,0-2.94.33l-2.82,3.51a2.1,2.1,0,0,0,.33,2.95l4.78,3.83a23.38,23.38,0,0,0-2.73,9.4l-6.1.67a2.09,2.09,0,0,0-1.85,2.31l.49,4.48a2.09,2.09,0,0,0,2.31,1.85l6.1-.67a23.43,23.43,0,0,0,4.71,8.58l-3.83,4.78a2.1,2.1,0,0,0,.32,2.95l3.51,2.81a2.1,2.1,0,0,0,2.95-.32l3.83-4.79a23.6,23.6,0,0,0,9.4,2.74l.67,6.09a2.11,2.11,0,0,0,2.32,1.86l4.47-.5a2.09,2.09,0,0,0,1.85-2.31l-.67-6.09a23.6,23.6,0,0,0,8.58-4.72l4.78,3.84a2.1,2.1,0,0,0,2.95-.33l2.82-3.51A2.11,2.11,0,0,0,305.18,239.54ZM271.9,234A12.17,12.17,0,1,1,289,232.15,12.17,12.17,0,0,1,271.9,234Z" transform="translate(8 9.21)"/><path class="cls-3" d="M280.49,256.53A2.5,2.5,0,0,1,278,254.3l-.64-5.76a23.85,23.85,0,0,1-8.92-2.6l-3.62,4.52a2.49,2.49,0,0,1-3.52.39L257.8,248a2.49,2.49,0,0,1-.39-3.52L261,240a23.8,23.8,0,0,1-4.47-8.15l-5.76.64A2.49,2.49,0,0,1,249,232a2.55,2.55,0,0,1-.93-1.68l-.49-4.47a2.49,2.49,0,0,1,.54-1.84,2.52,2.52,0,0,1,1.68-.93l5.76-.63a23.65,23.65,0,0,1,2.59-8.92l-4.52-3.63a2.51,2.51,0,0,1-.39-3.52l2.82-3.51a2.45,2.45,0,0,1,1.68-.92,2.49,2.49,0,0,1,1.84.53l4.52,3.63a23.78,23.78,0,0,1,8.14-4.48l-.63-5.75a2.51,2.51,0,0,1,2.21-2.77l4.48-.49a2.5,2.5,0,0,1,2.76,2.21l.63,5.76a23.89,23.89,0,0,1,8.93,2.6l3.62-4.52a2.51,2.51,0,0,1,3.52-.39l3.51,2.81a2.49,2.49,0,0,1,.92,1.68,2.44,2.44,0,0,1-.53,1.84L298,209.08a23.8,23.8,0,0,1,4.47,8.15l5.76-.64a2.5,2.5,0,0,1,1.84.54,2.47,2.47,0,0,1,.92,1.68l.5,4.47a2.49,2.49,0,0,1-.54,1.84,2.55,2.55,0,0,1-1.68.93l-5.76.63a23.83,23.83,0,0,1-2.59,8.92l4.52,3.63a2.45,2.45,0,0,1,.92,1.68,2.5,2.5,0,0,1-.54,1.84L303,246.26a2.51,2.51,0,0,1-3.52.39L295,243a23.82,23.82,0,0,1-8.15,4.48l.64,5.76a2.51,2.51,0,0,1-.54,1.84,2.45,2.45,0,0,1-1.68.92l-4.47.49ZM268.24,244.9l.3.16a22.84,22.84,0,0,0,9.23,2.69l.34,0,.71,6.43a1.68,1.68,0,0,0,1.86,1.49l4.47-.49a1.7,1.7,0,0,0,1.5-1.87l-.71-6.43.32-.09a23.08,23.08,0,0,0,8.43-4.64L295,242l5.05,4a1.69,1.69,0,0,0,2.37-.26l2.82-3.51a1.7,1.7,0,0,0-.26-2.38h0l-5.05-4,.16-.3a23.08,23.08,0,0,0,2.68-9.24l0-.34,6.43-.71a1.68,1.68,0,0,0,1.49-1.86l-.49-4.47a1.67,1.67,0,0,0-.62-1.13,1.63,1.63,0,0,0-1.24-.36l-6.43.71-.1-.33a23,23,0,0,0-4.63-8.43l-.23-.26,4.05-5a1.69,1.69,0,0,0-.26-2.37l-3.51-2.81a1.68,1.68,0,0,0-2.37.26l-4,5.05-.3-.16a22.89,22.89,0,0,0-9.24-2.69l-.33,0-.71-6.43a1.69,1.69,0,0,0-1.86-1.49l-4.48.49a1.64,1.64,0,0,0-1.13.63,1.68,1.68,0,0,0-.36,1.24l.71,6.43-.33.09a23.16,23.16,0,0,0-8.43,4.64l-.25.22L259,203.07a1.69,1.69,0,0,0-1.24-.36,1.71,1.71,0,0,0-1.14.62l-2.81,3.51a1.7,1.7,0,0,0,.26,2.38l5,4-.16.3a23.09,23.09,0,0,0-2.69,9.24l0,.34-6.43.71a1.71,1.71,0,0,0-1.14.62,1.68,1.68,0,0,0-.36,1.24l.5,4.47a1.68,1.68,0,0,0,1.86,1.49l6.43-.7.1.32a23,23,0,0,0,4.63,8.43l.22.26-4,5.05a1.68,1.68,0,0,0-.37,1.24,1.64,1.64,0,0,0,.63,1.13l3.51,2.81a1.59,1.59,0,0,0,1.24.36,1.67,1.67,0,0,0,1.13-.62Zm11.26-7.79a12.57,12.57,0,1,1,9.83-4.7A12.48,12.48,0,0,1,279.5,237.11Zm0-24.33a11.38,11.38,0,0,0-1.31.07,11.64,11.64,0,0,0-7.89,4.33,11.77,11.77,0,1,0,9.2-4.4Z" transform="translate(8 9.21)"/></g><g class="cls-6"><path class="cls-3" d="M335.68,275.87H289.4a1.6,1.6,0,0,1-1.45-1.72v-17a1.61,1.61,0,0,1,1.45-1.73h46.28a1.61,1.61,0,0,1,1.45,1.73v17A1.6,1.6,0,0,1,335.68,275.87ZM289.4,256.21c-.34,0-.63.42-.63.91v17c0,.49.29.91.63.91h46.28c.34,0,.63-.42.63-.91v-17c0-.49-.29-.91-.63-.91Z" transform="translate(8 9.21)"/><rect class="cls-3" x="305.48" y="271.19" width="31.33" height="0.82"/><path class="cls-3" d="M328.8,263.2H297.48a.82.82,0,1,1,0-1.63H328.8a.82.82,0,1,1,0,1.63Zm0-.81v0Z" transform="translate(8 9.21)"/><rect class="cls-3" x="305.48" y="274.91" width="14" height="0.82"/><path class="cls-3" d="M311.47,266.92h-14a.82.82,0,0,1,0-1.64h14a.82.82,0,1,1,0,1.64Zm0-.82v0Z" transform="translate(8 9.21)"/><rect class="cls-3" x="322.81" y="274.91" width="14" height="0.82"/><path class="cls-3" d="M328.8,266.92h-14a.82.82,0,0,1,0-1.64h14a.82.82,0,1,1,0,1.64Zm0-.82v0Z" transform="translate(8 9.21)"/><rect class="cls-3" x="305.48" y="278.79" width="31.33" height="0.82"/><path class="cls-3" d="M328.8,270.81H297.48a.82.82,0,0,1,0-1.64H328.8a.82.82,0,1,1,0,1.64Zm0-.82v0Z" transform="translate(8 9.21)"/></g><g class="cls-5"><path class="cls-3" d="M206.82,351.58a2.82,2.82,0,0,1-1.77-.63A2.77,2.77,0,0,1,204,349l-.58-5.22a23.31,23.31,0,0,1-8.12-2.37L192,345.56a2.85,2.85,0,0,1-4,.44l-3.4-2.73a2.85,2.85,0,0,1-.44-4l3.29-4.11a23.33,23.33,0,0,1-4.07-7.41l-5.23.57a2.85,2.85,0,0,1-3.14-2.51l-.47-4.33a2.85,2.85,0,0,1,2.51-3.14l5.23-.57a23.41,23.41,0,0,1,2.36-8.13l-4.1-3.29a2.85,2.85,0,0,1-.44-4l2.72-3.39a2.84,2.84,0,0,1,4-.44l4.1,3.29a23.32,23.32,0,0,1,7.42-4.08l-.58-5.22a2.85,2.85,0,0,1,.61-2.09,2.79,2.79,0,0,1,1.91-1.05l4.32-.48a2.85,2.85,0,0,1,2.09.61,2.79,2.79,0,0,1,1.05,1.91l.58,5.22a23.31,23.31,0,0,1,8.12,2.37l3.29-4.1a2.85,2.85,0,0,1,4-.45l3.4,2.73a2.85,2.85,0,0,1,.44,4l-3.29,4.11a23.33,23.33,0,0,1,4.07,7.41l5.23-.57a2.86,2.86,0,0,1,3.14,2.51l.47,4.33a2.85,2.85,0,0,1-2.51,3.14l-5.23.57a23.41,23.41,0,0,1-2.36,8.13l4.1,3.29h0a2.84,2.84,0,0,1,.44,4l-2.72,3.39a2.84,2.84,0,0,1-4,.44l-4.1-3.29a23.32,23.32,0,0,1-7.42,4.08l.58,5.22a2.85,2.85,0,0,1-2.52,3.14l-4.32.48Zm-12-12.2.6.32a21.94,21.94,0,0,0,8.76,2.55l.68.05.72,6.56a1.27,1.27,0,0,0,.45.82,1.19,1.19,0,0,0,.89.25l4.32-.47a1.23,1.23,0,0,0,.81-.45,1.15,1.15,0,0,0,.26-.89l-.72-6.56.65-.2a21.74,21.74,0,0,0,8-4.39l.52-.45,5.15,4.13a1.16,1.16,0,0,0,.89.26,1.18,1.18,0,0,0,.81-.44l2.72-3.4a1.14,1.14,0,0,0,.26-.89,1.2,1.2,0,0,0-.44-.81h0L225,331.24l.32-.6a21.73,21.73,0,0,0,2.55-8.76l.05-.68,6.57-.72a1.21,1.21,0,0,0,1.07-1.33l-.48-4.33a1.21,1.21,0,0,0-1.33-1.07l-6.57.73-.19-.65a21.87,21.87,0,0,0-4.4-8l-.44-.51,4.13-5.16a1.2,1.2,0,0,0-.19-1.7l-3.39-2.72a1.21,1.21,0,0,0-1.7.19l-4.13,5.15-.6-.32a21.94,21.94,0,0,0-8.76-2.55l-.68,0-.72-6.56a1.23,1.23,0,0,0-.45-.81,1.15,1.15,0,0,0-.89-.26l-4.32.47a1.23,1.23,0,0,0-.81.45,1.15,1.15,0,0,0-.26.89l.72,6.56-.65.2a21.74,21.74,0,0,0-8,4.39l-.52.45-5.15-4.13a1.16,1.16,0,0,0-.89-.26,1.18,1.18,0,0,0-.81.44l-2.72,3.4a1.14,1.14,0,0,0-.26.89,1.2,1.2,0,0,0,.44.81l5.16,4.13-.32.6a21.73,21.73,0,0,0-2.55,8.76l-.05.68-6.57.72a1.21,1.21,0,0,0-1.07,1.33l.48,4.33a1.21,1.21,0,0,0,1.33,1.07l6.57-.73.19.65a21.87,21.87,0,0,0,4.4,8l.44.51-4.13,5.16a1.2,1.2,0,0,0,.19,1.7l3.39,2.72a1.21,1.21,0,0,0,1.7-.19Zm11-6.57a12.58,12.58,0,1,1,9.83-4.71A12.53,12.53,0,0,1,205.86,332.81Zm0-23.53a9.87,9.87,0,0,0-1.22.07A10.94,10.94,0,0,0,199,328.77h0a10.94,10.94,0,1,0,6.87-19.49Z" transform="translate(8 9.21)"/></g><rect class="cls-7" width="364.6" height="424.11"/><path class="cls-8" d="M323,328.23c0,1.91-69.55,3.46-155.35,3.46s-155.35-1.55-155.35-3.46,69.55-3.47,155.35-3.47S323,326.32,323,328.23Z" transform="translate(8 9.21)"/><path class="cls-9" d="M68.47,137a25.59,25.59,0,0,0-.4-4.49,2.15,2.15,0,0,1,1.05-2.25l3.51-2a2.19,2.19,0,0,0,.8-3l-4.94-8.56a2.17,2.17,0,0,0-3-.79l-3.51,2a2.18,2.18,0,0,1-2.48-.22,25.39,25.39,0,0,0-7.77-4.49,2.14,2.14,0,0,1-1.41-2v-4.06A2.19,2.19,0,0,0,48.16,105H38.28a2.19,2.19,0,0,0-2.18,2.18v4.06a2.14,2.14,0,0,1-1.42,2,25.34,25.34,0,0,0-7.76,4.49,2.18,2.18,0,0,1-2.48.22l-3.52-2a2.18,2.18,0,0,0-3,.79L13,125.25a2.18,2.18,0,0,0,.79,3l3.52,2a2.18,2.18,0,0,1,1.05,2.25,25.34,25.34,0,0,0,0,9,2.17,2.17,0,0,1-1.05,2.25l-3.52,2a2.18,2.18,0,0,0-.79,3l4.93,8.55a2.18,2.18,0,0,0,3,.8l3.52-2a2.16,2.16,0,0,1,2.48.21,25.14,25.14,0,0,0,7.76,4.49,2.16,2.16,0,0,1,1.42,2v4.05A2.18,2.18,0,0,0,38.28,169h9.88a2.18,2.18,0,0,0,2.18-2.18v-4.05a2.17,2.17,0,0,1,1.41-2,25.19,25.19,0,0,0,7.77-4.49,2.16,2.16,0,0,1,2.48-.21l3.51,2a2.18,2.18,0,0,0,3-.8l4.94-8.55a2.19,2.19,0,0,0-.8-3l-3.51-2a2.14,2.14,0,0,1-1.05-2.25A25.39,25.39,0,0,0,68.47,137ZM45,150.49a13.62,13.62,0,1,1,11.73-11.73A13.62,13.62,0,0,1,45,150.49Z" transform="translate(8 9.21)"/><path class="cls-9" d="M104.28,91.94a30.31,30.31,0,0,0,2.32-4.85,2.57,2.57,0,0,1,2.46-1.66l4.84.07a2.61,2.61,0,0,0,2.63-2.57l.16-11.79a2.6,2.6,0,0,0-2.56-2.63l-4.85-.07a2.57,2.57,0,0,1-2.41-1.73,30.17,30.17,0,0,0-5.22-9.35,2.58,2.58,0,0,1-.21-3l2.48-4.16a2.6,2.6,0,0,0-.91-3.56l-10.13-6a2.6,2.6,0,0,0-3.56.91l-2.48,4.16a2.57,2.57,0,0,1-2.7,1.22,29.85,29.85,0,0,0-10.7-.14,2.59,2.59,0,0,1-2.67-1.29l-2.36-4.23a2.6,2.6,0,0,0-3.55-1L54.58,46a2.6,2.6,0,0,0-1,3.54l2.36,4.22a2.6,2.6,0,0,1-.29,3A29.46,29.46,0,0,0,52.5,61.1a29.83,29.83,0,0,0-2.33,4.84,2.59,2.59,0,0,1-2.46,1.67l-4.84-.07a2.6,2.6,0,0,0-2.63,2.57l-.16,11.78a2.6,2.6,0,0,0,2.56,2.64l4.85.07a2.56,2.56,0,0,1,2.41,1.73,30.12,30.12,0,0,0,5.22,9.34,2.58,2.58,0,0,1,.21,3l-2.47,4.15a2.6,2.6,0,0,0,.9,3.57l10.13,6a2.59,2.59,0,0,0,3.56-.9l2.48-4.16a2.57,2.57,0,0,1,2.7-1.22,30.31,30.31,0,0,0,10.7.14A2.58,2.58,0,0,1,86,107.53l2.37,4.23a2.6,2.6,0,0,0,3.54,1L102.2,107a2.62,2.62,0,0,0,1-3.55l-2.37-4.22a2.57,2.57,0,0,1,.3-2.95A31,31,0,0,0,104.28,91.94ZM72,91.44a16.24,16.24,0,1,1,19.19-4.87A16.25,16.25,0,0,1,72,91.44Z" transform="translate(8 9.21)"/><path class="cls-9" d="M326.58,115.91a34.42,34.42,0,0,0-.55-6.13,3,3,0,0,1,1.44-3.08l4.8-2.77a3,3,0,0,0,1.09-4.07l-6.75-11.69a3,3,0,0,0-4.07-1.09l-4.81,2.77a2.92,2.92,0,0,1-3.38-.29,34.48,34.48,0,0,0-10.62-6.13,3,3,0,0,1-1.94-2.79V75.1a3,3,0,0,0-3-3h-13.5a3,3,0,0,0-3,3v5.54a3,3,0,0,1-1.94,2.79,34.48,34.48,0,0,0-10.62,6.13,2.92,2.92,0,0,1-3.38.29l-4.81-2.77a3,3,0,0,0-4.07,1.09l-6.75,11.69a3,3,0,0,0,1.09,4.07l4.8,2.77a3,3,0,0,1,1.44,3.08,34.44,34.44,0,0,0,0,12.26,3,3,0,0,1-1.44,3.08l-4.8,2.77a3,3,0,0,0-1.09,4.07l6.75,11.69a3,3,0,0,0,4.07,1.09l4.81-2.77a2.94,2.94,0,0,1,3.38.29,34.51,34.51,0,0,0,10.62,6.14,3,3,0,0,1,1.94,2.78v5.54a3,3,0,0,0,3,3h13.5a3,3,0,0,0,3-3v-5.54a3,3,0,0,1,1.94-2.78,34.51,34.51,0,0,0,10.62-6.14,2.94,2.94,0,0,1,3.38-.29l4.81,2.78a3,3,0,0,0,4.07-1.1L333.36,132a3,3,0,0,0-1.09-4.07l-4.8-2.77A3,3,0,0,1,326,122,34.42,34.42,0,0,0,326.58,115.91Zm-32.1,18.45a18.61,18.61,0,1,1,16-16A18.61,18.61,0,0,1,294.48,134.36Z" transform="translate(8 9.21)"/><rect class="cls-8" x="51.22" y="146.18" width="248.84" height="159.51"/><rect class="cls-10" x="51.22" y="152.57" width="248.84" height="13.99"/><path class="cls-11" d="M58,148.71l1.39,1.47v2H56.63v-2l1.4-1.47m0-1a.48.48,0,0,0-.34.15L56,149.67a.71.71,0,0,0-.18.48v2.19a.59.59,0,0,0,.52.64h3.39a.59.59,0,0,0,.52-.64v-2.19a.71.71,0,0,0-.18-.48l-1.7-1.79a.44.44,0,0,0-.33-.15Z" transform="translate(8 9.21)"/><path class="cls-12" d="M64.61,151.86l2-1.26c.23-.14.23-.35,0-.5l-2-1.26" transform="translate(8 9.21)"/><path class="cls-12" d="M51.44,151.86l-1.95-1.26c-.23-.14-.23-.35,0-.5l1.95-1.26" transform="translate(8 9.21)"/><rect class="cls-13" x="80.93" y="155.22" width="192.47" height="8.69" rx="2.13"/><rect class="cls-10" x="145.46" y="158.25" width="63.41" height="2.62"/><path class="cls-14" d="M79.7,149a1.86,1.86,0,1,1-2.63,0A1.87,1.87,0,0,1,79.7,149Z" transform="translate(8 9.21)"/><line class="cls-15" x1="87.7" y1="160.88" x2="88.81" y2="161.99"/><path class="cls-15" d="M262.52,150.35a1.86,1.86,0,1,1-1.86-1.85" transform="translate(8 9.21)"/><polygon class="cls-16" points="268.66 157.19 269.65 157.86 268.66 158.53 268.66 157.19"/><polygon class="cls-17" points="281.39 156.93 282.05 158.94 284.16 158.94 282.45 160.19 283.11 162.2 281.39 160.96 279.69 162.2 280.34 160.19 278.63 158.94 280.74 158.94 281.39 156.93"/><line class="cls-17" x1="288.63" y1="157.36" x2="295.54" y2="157.36"/><line class="cls-17" x1="288.63" y1="159.57" x2="295.54" y2="159.57"/><line class="cls-17" x1="288.63" y1="161.77" x2="295.54" y2="161.77"/><polyline class="cls-18" points="300.06 146.18 300.06 305.7 51.22 305.7"/><rect class="cls-11" x="51.22" y="146.18" width="248.84" height="6.39"/><circle class="cls-19" cx="56.2" cy="149.38" r="1.5"/><circle class="cls-20" cx="60.31" cy="149.38" r="1.5"/><path class="cls-21" d="M57.92,140.16a1.5,1.5,0,1,1-1.5-1.49A1.5,1.5,0,0,1,57.92,140.16Z" transform="translate(8 9.21)"/><rect class="cls-22" x="194.87" y="286.53" width="86.03" height="9.73"/><circle class="cls-22" cx="81.49" cy="184.66" r="11.34"/><rect class="cls-23" x="98.48" y="179.9" width="44.33" height="3.85"/><rect class="cls-23" x="98.48" y="185.57" width="32.59" height="3.85"/><rect class="cls-10" x="203.39" y="179.9" width="22.17" height="3.85"/><rect class="cls-10" x="231.06" y="179.9" width="22.17" height="3.85"/><line class="cls-24" x1="70.59" y1="200.26" x2="280.69" y2="200.26"/><rect class="cls-23" x="70.59" y="249.02" width="72.22" height="5.81"/><rect class="cls-10" x="70.59" y="260.39" width="100.5" height="2.57"/><rect class="cls-10" x="70.59" y="265.37" width="91.72" height="2.57"/><rect class="cls-10" x="70.59" y="270.35" width="84.3" height="2.57"/><rect class="cls-10" x="70.59" y="275.33" width="100.5" height="2.57"/><g class="cls-25"><rect class="cls-26" x="71.41" y="287.35" width="34.8" height="9.73" rx="4.86"/></g><rect class="cls-19" x="70.59" y="286.53" width="34.8" height="9.73" rx="4.86"/><g class="cls-25"><rect class="cls-26" x="111.48" y="287.35" width="34.8" height="9.73" rx="4.86"/></g><rect class="cls-11" x="110.66" y="286.53" width="34.8" height="9.73" rx="4.86"/><rect class="cls-22" x="70.59" y="209.9" width="14.67" height="14.67"/><line class="cls-27" x1="70.59" y1="209.9" x2="85.26" y2="224.58"/><line class="cls-27" x1="85.26" y1="209.9" x2="70.59" y2="224.58"/><rect class="cls-22" x="91.14" y="209.9" width="14.67" height="14.67"/><line class="cls-27" x1="91.14" y1="209.9" x2="105.81" y2="224.58"/><line class="cls-27" x1="105.81" y1="209.9" x2="91.14" y2="224.58"/><rect class="cls-22" x="111.69" y="209.9" width="14.67" height="14.67"/><line class="cls-27" x1="111.69" y1="209.9" x2="126.36" y2="224.58"/><line class="cls-27" x1="126.36" y1="209.9" x2="111.69" y2="224.58"/><g class="cls-25"><rect class="cls-26" x="98.18" y="188.83" width="12.95" height="76.31" transform="translate(-115.96 337.22) rotate(-89.09)"/></g><rect class="cls-22" x="96.55" y="188.01" width="12.95" height="76.31" transform="translate(-116.75 334.79) rotate(-89.09)"/><line class="cls-15" x1="230.77" y1="58.51" x2="230.77" y2="122.34"/><path class="cls-10" d="M226.62,127.3a1.06,1.06,0,0,0-1,1.1,2.86,2.86,0,0,1-2.35,2.82,3,3,0,0,1-1,0,2.66,2.66,0,0,1-.93-.33,2.93,2.93,0,0,1-1.27-1.53,2.74,2.74,0,0,1,0-2c1.51-3,4.53-5,4.53-8a5.57,5.57,0,1,0-3.82-.08c-.19,2.13-2.68,4-3.73,6.93a5.87,5.87,0,0,0,.13,4.17,5.77,5.77,0,0,0,2.7,3,5.63,5.63,0,0,0,3.81.48,5.32,5.32,0,0,0,3.07-2,5.1,5.1,0,0,0,1-3.36v-.1A1.06,1.06,0,0,0,226.62,127.3Zm-3.85-15.57a2.3,2.3,0,0,1,1.32,4.18,2,2,0,0,0-1.5-.52,1.92,1.92,0,0,0-1.14.52,2.3,2.3,0,0,1,1.32-4.18Z" transform="translate(8 9.21)"/><g class="cls-25"><rect class="cls-26" x="159.45" y="190.7" width="142.48" height="84.05" transform="matrix(0.99, -0.14, 0.14, 0.99, -21.54, 42.79)"/><polygon class="cls-26" points="272.46 224.58 236.54 271.95 205.48 248.4 173.47 290.6 173.84 293.27 314.99 273.88 312.38 254.85 272.46 224.58"/><path class="cls-26" d="M292.75,185.08l10.56,76.79L168.63,280.38l-10.55-76.8,134.67-18.5m2.8-3.69-141.16,19.4,11.45,83.27L307,264.66l-11.44-83.27Z" transform="translate(8 9.21)"/><circle class="cls-26" cx="222.25" cy="216.98" r="11.86" transform="translate(-78.12 263.4) rotate(-51.19)"/></g><rect class="cls-23" x="151.28" y="176.81" width="142.48" height="84.05" transform="matrix(0.99, -0.14, 0.14, 0.99, -19.72, 41.55)"/><polygon class="cls-22" points="264.29 210.69 228.37 258.05 197.31 234.5 165.3 276.71 165.66 279.38 306.82 259.98 304.2 240.96 264.29 210.69"/><path class="cls-22" d="M284.58,171.18,295.14,248,160.46,266.48,149.9,189.69l134.68-18.51m2.79-3.68L146.22,186.9l11.45,83.27,141.15-19.4L287.37,167.5Z" transform="translate(8 9.21)"/><circle class="cls-13" cx="214.08" cy="203.09" r="11.86" transform="translate(-70.34 251.85) rotate(-51.19)"/><polyline class="cls-16" points="163.4 194.85 157.01 216.44 164.84 194.65"/><polyline class="cls-16" points="281.66 178.28 298.35 198.34 280.22 178.08"/><path class="cls-16" d="M272.22,168.87,225,132.31a2.87,2.87,0,0,0-4.64-.08l-63.55,53.21" transform="translate(8 9.21)"/><circle class="cls-15" cx="215.81" cy="49.29" r="6.96" transform="translate(36.35 176.25) rotate(-45)"/><circle class="cls-15" cx="223.81" cy="58.51" r="2.57"/><path class="cls-11" d="M268.32,265.9c-2.67,12.15-1.64,27.76,4.27,36.87,4.66,7.2,13,9.42,20.33,15.1l-.34,3.56,3.26-3.88s-4.1-4.07-16-16.36c-2.91-3-.83-14.9-.07-17.87,3.7-4.93,0-10.09-2.46-17.42Z" transform="translate(8 9.21)"/><path class="cls-20" d="M292.92,317.87l-.34,3.56,3.26-3.88-1.38-1.39A1.58,1.58,0,0,1,292.92,317.87Z" transform="translate(8 9.21)"/><path class="cls-28" d="M264.91,265.9c-7.81,15.4-7.48,25.27,3.81,61.21l-3.61,2.24h5.5s-.23-38,2-46.66c3.7-4.93,3.75-9.46,1.3-16.79Z" transform="translate(8 9.21)"/><path class="cls-20" d="M265.11,329.35h5.5v-2.24s-1.18.7-1.89,0Z" transform="translate(8 9.21)"/><path class="cls-13" d="M273.36,230.44c-1.37,4.2-5.24,6.24-7.25,5.87s-3.06-3.82-2.34-7.67,2.93-6,5-6.3C271.65,222,275.27,224.61,273.36,230.44Z" transform="translate(8 9.21)"/><rect class="cls-13" x="276.72" y="240.81" width="3.79" height="9.5"/><path class="cls-20" d="M269.46,238.86c-5,.9-8.31,9.06-8.8,12-.29,1.73-.1,3.41,1.82,6.78a16.06,16.06,0,0,1,2.43,8.28h12.45c0-3.72,2.4-7.9,3.81-13.71S277.9,237.32,269.46,238.86Z" transform="translate(8 9.21)"/><path class="cls-29" d="M273.72,239.05s7.23.87,10.2-.19c7-2.5,10.06-8.53,10.3-14.74h1.89s2.55,18.34-14.81,24.89Z" transform="translate(8 9.21)"/><path class="cls-13" d="M294.22,224.12c-1.27-1.39-.47-2.54-1-3.64s.11-2.36,1.49.64l-.57-4.2s1.64.82,1.94,7.2Z" transform="translate(8 9.21)"/><path class="cls-29" d="M269.15,239.83c3.72.73,3.26,7.46-1,11.36-4,3.68-15.35,6.9-30.59,8.87l-.5-1.67a53.32,53.32,0,0,0,16-6.07C260.44,247.81,263.78,238.78,269.15,239.83Z" transform="translate(8 9.21)"/><path class="cls-13" d="M237.07,258.39c-1.63-.77-2.5.22-3.65.05s-1.73.61,1.43,1.09l-4.35.63s1,1.2,7.07-.1Z" transform="translate(8 9.21)"/><path class="cls-19" d="M264.35,222.84c-1.92,3.36,4.37,2.53,4.37,5.82s-6.89,3.89-8.17,8.18c-1.46,4.9,8.52,3.59,7,8.67-2.21,7.47-16.83,8.09-11.26,16,4.05,5.76,13.94,2.48,12.82,11.89-1.08,9.14,15.6,7.3,17-.19,1-5-8.34-8-3.14-11.77,6.38-4.6,14.43-10.77,7.54-16-3.49-2.64-12.91-4.28-13.87-8.51s4.61-10.75-2-15.08C267.89,217.42,264.35,222.84,264.35,222.84Z" transform="translate(8 9.21)"/><path class="cls-11" d="M97.13,123.71S100.38,137,107.31,137c15.86,0,20.39-6.07,26.74-5.65,3.36.22,11.8,5.65,11.8,5.65h4.76l-3.34-2.08s-9.13-12-15.25-12.7c-7.75-.94-18,6.74-23.51,1.53Z" transform="translate(8 9.21)"/><path class="cls-20" d="M145.85,137l-1.06-.67a2.6,2.6,0,0,0,2.48-1.41l3.34,2.08Z" transform="translate(8 9.21)"/><polyline class="cls-15" points="220.21 52.55 146.57 99 135.98 109.08 135.98 144.09"/><path class="cls-10" d="M126.12,101.26c.65-1.11,2.17-3.3,2.93-1.85.48.92.28,2.53-.15,2.69a8.69,8.69,0,0,1-1.57.27Z" transform="translate(8 9.21)"/><path class="cls-20" d="M95.13,99.08c6-3.4,15.81,7.49,18.77,8,4.78.91,11.61-5.38,12.22-5.87l1.21,1.11s-7.48,10.72-14.55,10.92S87.43,103.42,95.13,99.08Z" transform="translate(8 9.21)"/><path class="cls-13" d="M126.12,101.26a2.46,2.46,0,0,1,1.43-2c1.15-.62.9-1.21,1.29-1.21s.79,1.11-.18,1.5a2.57,2.57,0,0,1-1.68,2.48Z" transform="translate(8 9.21)"/><path class="cls-13" d="M129.05,99.41c0,.42-.41.36-.86.34-.61,0-1.22-.12-1.12.67.16,1.24,0,2,.58,2s1,.16,1.4-.05S129.64,100.35,129.05,99.41Z" transform="translate(8 9.21)"/><path class="cls-28" d="M109.09,120.29c7.79,15.37,13.82,31.13,28.25,44.77l4.06-1.18L137.73,168s-30.18-17.66-38.37-28.48c-3.69-4.93-4.62-8.47-2.17-15.78Z" transform="translate(8 9.21)"/><path class="cls-20" d="M137.73,168l3.67-4.08-4.06,1.18a1.8,1.8,0,0,1-1.28,1.91Z" transform="translate(8 9.21)"/><path class="cls-13" d="M91.85,91.53c2.24,3.35,6.15,4.19,7.83,3.36s1.75-4.11.15-7.32-4.07-4.6-5.92-4.31C91.26,83.66,88.73,86.88,91.85,91.53Z" transform="translate(8 9.21)"/><polygon class="cls-13" points="101.25 110.47 106.58 108.97 104.22 100.61 98.44 97.28 101.25 110.47"/><path class="cls-29" d="M97.29,98c-5.64.71-10.51,2.32-8.11,21.27C91.43,137,97.29,137,97.29,137s17.8,1.25,21.39-12.17a27.88,27.88,0,0,1-10-15C106.29,100.21,101.66,97.42,97.29,98Z" transform="translate(8 9.21)"/><path class="cls-29" d="M97.29,98l39.11-8.21.92,2.12S110.39,109.35,101,110,90.49,100,97.29,98Z" transform="translate(8 9.21)"/><path class="cls-13" d="M136.4,89.76S138,87.54,139,87.69s2.17,2.29,1.64,3.11-3.29,1.08-3.29,1.08Z" transform="translate(8 9.21)"/><path class="cls-11" d="M92.35,97.05a4.49,4.49,0,0,0,2.77-4.42s-1.37.72-1.77-2.27c-.18-1.36,1.16-1.63,1.78-.13.86.32,2-.27,1.85-1.85-.29-2.56,2.9-2.13,3-5.16.15-3.92-7.67-9.07-9.15-5.5-1.22,2.92-.86,4.68-4.57,4.72C79.46,82.5,86.44,98.42,92.35,97.05Z" transform="translate(8 9.21)"/><path class="cls-11" d="M69.63,265.9c2.67,12.15,1.64,27.76-4.26,36.87-4.66,7.2-13,9.42-20.34,15.1l.34,3.56-3.25-3.88s4.09-4.07,16-16.36c2.91-3,.83-14.9.07-17.87-3.7-4.93,0-10.09,2.46-17.42Z" transform="translate(8 9.21)"/><path class="cls-20" d="M45,317.87l.34,3.56-3.25-3.88,1.38-1.39A1.57,1.57,0,0,0,45,317.87Z" transform="translate(8 9.21)"/><path class="cls-28" d="M73.05,265.9c7.8,15.4,7.48,25.27-3.81,61.21l3.6,2.24h-5.5s.24-38-2-46.66c-3.7-4.93-3.76-9.46-1.31-16.79Z" transform="translate(8 9.21)"/><path class="cls-20" d="M72.84,329.35h-5.5v-2.24s1.19.7,1.9,0Z" transform="translate(8 9.21)"/><path class="cls-13" d="M64.59,230.44c1.37,4.2,5.24,6.24,7.25,5.87s3.07-3.82,2.34-7.67-2.92-6-5-6.3C66.31,222,62.69,224.61,64.59,230.44Z" transform="translate(8 9.21)"/><rect class="cls-13" x="62.59" y="231.6" width="6.65" height="9.5" transform="translate(139.83 481.91) rotate(180)"/><path class="cls-29" d="M64.23,239.05s-7.22.87-10.2-.19c-7-2.5-10.05-8.53-10.29-14.74h-1.9S39.3,242.46,56.65,249Z" transform="translate(8 9.21)"/><path class="cls-13" d="M43.74,224.12c1.26-1.39.46-2.54,1-3.64s-.11-2.36-1.48.64v-4.2s-1.07.82-1.38,7.2Z" transform="translate(8 9.21)"/><path class="cls-29" d="M72,240.38c-4.62-2.29-6.55-1.34-14.27-1s-1.16,19-1.16,39.92c0,0,6.71,3.9,23.42,0C80,279.29,79.33,244,72,240.38Z" transform="translate(8 9.21)"/><path class="cls-21" d="M68.76,233.05c1.15,2-5.44,3.78-7.19,1.75s-7.66-3.62-3.32-11.53c1.89-3.44,2.61-8.49,5.41-9,6.72-1.17,10,4,9.81,7-.21,4.2-1.85,6.73-3.54,7.56C68.78,229.46,67,229.91,68.76,233.05Z" transform="translate(8 9.21)"/><path class="cls-29" d="M68.19,239.06c8,0,13.94,4.37,19.79,4.92,6.8.64,13.57-4,14.94-7.63l3-.53s-4.63,9.79-17.7,14.08c-6.56,2.16-14.59,2.5-19.46.25S62.57,239.09,68.19,239.06Z" transform="translate(8 9.21)"/><path class="cls-13" d="M102.92,236.35c-1-1.43.5-2.9.7-4s.76-1.86,1.29-2c.91-.19.64,1.08.34,2.29a.16.16,0,0,0,.22.18,8.94,8.94,0,0,1,3.93-.93c.47,0,.77.57-1.16,1.54a4.23,4.23,0,0,0-2.27,2.35Z" transform="translate(8 9.21)"/><g class="cls-25"><rect class="cls-26" x="110.97" y="302.28" width="90.93" height="24.22"/><rect class="cls-26" x="117.08" y="307.05" width="14.67" height="14.67"/><line class="cls-30" x1="117.08" y1="307.05" x2="131.75" y2="321.73"/><line class="cls-30" x1="131.75" y1="307.05" x2="117.08" y2="321.73"/><rect class="cls-26" x="136.86" y="310.3" width="54.8" height="1.73"/><rect class="cls-26" x="136.86" y="316.75" width="54.8" height="1.73"/><rect class="cls-26" x="136.86" y="313.53" width="48.89" height="1.73"/></g><rect class="cls-22" x="110.15" y="301.46" width="90.93" height="24.22"/><rect class="cls-31" x="116.26" y="306.24" width="14.67" height="14.67"/><line class="cls-32" x1="116.26" y1="306.24" x2="130.93" y2="320.91"/><line class="cls-32" x1="130.93" y1="306.24" x2="116.26" y2="320.91"/><rect class="cls-33" x="136.04" y="309.48" width="54.8" height="1.73"/><rect class="cls-33" x="136.04" y="315.94" width="54.8" height="1.73"/><rect class="cls-33" x="136.04" y="312.71" width="48.89" height="1.73"/><g class="cls-25"><rect class="cls-26" x="95.71" y="312.71" width="90.93" height="24.22"/><rect class="cls-26" x="101.81" y="317.48" width="14.67" height="14.67"/><line class="cls-30" x1="101.81" y1="317.48" x2="116.49" y2="332.15"/><line class="cls-30" x1="116.49" y1="317.48" x2="101.81" y2="332.15"/><rect class="cls-26" x="121.6" y="320.73" width="54.8" height="1.73"/><rect class="cls-26" x="121.6" y="327.18" width="54.8" height="1.73"/><rect class="cls-26" x="121.6" y="323.95" width="48.89" height="1.73"/></g><rect class="cls-20" x="94.89" y="311.89" width="90.93" height="24.22"/><rect class="cls-22" x="101" y="316.66" width="14.67" height="14.67"/><line class="cls-34" x1="101" y1="316.66" x2="115.67" y2="331.34"/><line class="cls-34" x1="115.67" y1="316.66" x2="101" y2="331.34"/><rect class="cls-33" x="120.78" y="319.91" width="54.8" height="1.73"/><rect class="cls-33" x="120.78" y="326.36" width="54.8" height="1.73"/><rect class="cls-33" x="120.78" y="323.14" width="48.89" height="1.73"/><circle class="cls-9" cx="178.61" cy="131.99" r="2.39"/><circle class="cls-9" cx="169.98" cy="116.37" r="4.68"/><circle class="cls-9" cx="193.53" cy="120.46" r="2.68"/><circle class="cls-9" cx="19.71" cy="104.65" r="3.77"/><circle class="cls-9" cx="29.03" cy="92.88" r="3.24"/><circle class="cls-9" cx="324.3" cy="169.43" r="2.87"/><circle class="cls-9" cx="336.71" cy="156.84" r="6.25" transform="translate(-4.28 293.24) rotate(-45)"/></g></g></svg>